<?xml version="1.0" encoding="utf-8"?>
<!-- Generator: Adobe Illustrator 21.0.2, SVG Export Plug-In . SVG Version: 6.00 Build 0)  -->
<svg version="1.1" id="Camada_1" xmlns="http://www.w3.org/2000/svg" xmlns:xlink="http://www.w3.org/1999/xlink" x="0px" y="0px"
	 viewBox="0 0 60.9 60.9" style="enable-background:new 0 0 60.9 60.9;" xml:space="preserve">
<style type="text/css">
	.st0{fill:#FFFFFF;}
	.st1{fill:none;stroke:#1D1D1B;stroke-width:0.851;stroke-miterlimit:10;}
	.st2{fill:#68B2BB;}
</style>
<path class="st0" d="M30.5,61C47.3,61,61,47.4,61,30.5C60.9,13.7,47.3,0.1,30.5,0.1S0,13.7,0,30.5C0,47.3,13.6,61,30.5,61"/>
<circle class="st1" cx="30.5" cy="30.5" r="26.9"/>
<g>
	<polygon class="st2" points="23,16.5 23,28.5 47.4,28.8 52.3,22.6 47.2,16.5 	"/>
	<path d="M47.3,29.3c0.2,0,0.3-0.1,0.5-0.2l4.9-6c0.2-0.2,0.2-0.5,0-0.7l-4.9-6.1c-0.1-0.1-0.3-0.2-0.5-0.2H32.7v-3.5
		c0-0.3-0.3-0.6-0.6-0.6h-4.4c-0.3,0-0.6,0.3-0.6,0.6v3.5h-4.3c-0.3,0-0.6,0.3-0.6,0.6v12.1c0,0.2,0.1,0.3,0.2,0.4
		c0.1,0.1,0.3,0.2,0.4,0.2L47.3,29.3z M28.3,13.2h3.2v2.9h-3.2V13.2z M23.4,17.2H47l4.4,5.5L47,28.2l-23.6,0V17.2z"/>
	<path d="M21.8,51h16.3c0.3,0,0.6-0.3,0.6-0.6s-0.3-0.6-0.6-0.6h-5.4V36.5h5.4c0.3,0,0.6-0.3,0.6-0.6v-7.1h-1.2v6.5H14l-4.4-5.5
		l4.4-5.5h8.8v-1.2h-9.1c-0.2,0-0.3,0.1-0.5,0.2l-4.9,6.1c-0.2,0.2-0.2,0.5,0,0.7l4.9,6.1c0.1,0.1,0.3,0.2,0.5,0.2h13.5v13.3h-5.4
		c-0.3,0-0.6,0.3-0.6,0.6S21.5,51,21.8,51z M28.3,36.5h3.2v13.3h-3.2V36.5z"/>
</g>
</svg>
