<?xml version="1.0" encoding="utf-8"?>
<!-- Generator: Adobe Illustrator 21.0.2, SVG Export Plug-In . SVG Version: 6.00 Build 0)  -->
<svg version="1.1" id="Camada_1" xmlns="http://www.w3.org/2000/svg" xmlns:xlink="http://www.w3.org/1999/xlink" x="0px" y="0px"
	 viewBox="0 0 60.9 60.9" style="enable-background:new 0 0 60.9 60.9;" xml:space="preserve">
<style type="text/css">
	.st0{fill:#FFFFFF;}
	.st1{fill:none;stroke:#1D1D1B;stroke-width:0.851;stroke-miterlimit:10;}
	.st2{fill:#68B2BB;}
	.st3{fill:#1D1D1B;}
</style>
<path class="st0" d="M30.5,61C47.3,61,61,47.4,61,30.5C60.9,13.7,47.3,0.1,30.5,0.1S0,13.7,0,30.5C0,47.3,13.6,61,30.5,61"/>
<circle class="st1" cx="30.5" cy="30.5" r="26.9"/>
<g>
	<path class="st2" d="M32.8,46.6l-0.6-1c-0.1-0.1-0.2-0.2-0.4-0.2L31,45.3l-0.5-1.6c-0.1-0.2-0.2-0.3-0.5-0.3l-3.6-0.2l0-0.1
		l0.6-1.8c0.1-0.2,0-0.5-0.2-0.6L25.6,40l-0.3-4.8c0-0.1-0.1-0.2-0.1-0.3l-1.9-2c-0.1-0.1-0.2-0.1-0.3-0.2l-4.7-0.1L15.9,31
		c-0.1-0.1-0.2-0.1-0.3-0.1c-0.1,0-0.1,0-0.2,0l-1.7,0.7l-2-1c-0.1,0-0.1-0.1-0.2-0.1c0,0-3,0.1-3,0.1l2.1-1.4
		c0.1-0.1,0.2-0.1,0.2-0.2l1-2.7l0.9-0.3c0.2-0.1,0.3-0.2,0.3-0.4l0.3-2.1l0.8-0.2c0.1,0,0.2-0.1,0.3-0.3l1.6-3.4l2-0.5
		c0.2-0.1,0.4-0.2,0.4-0.4l0.1-1.2l2.1-1.4l0.2,0.1l0.6,1.1c0.1,0.2,0.3,0.3,0.4,0.3c0,0,4-0.2,4-0.2l0.1,1.5c0,0.1,0.1,0.3,0.2,0.4
		c0.1,0.1,0.2,0.1,0.3,0.1c0,0,0.1,0,0.1,0l6.8-1.3l1,0.6c0.1,0,0.2,0.1,0.3,0.1c0.1,0,0.2,0,0.3-0.1l1.2-0.7l0.9,0l1.1,2.6
		l-0.6,1.1C37,21.7,37,21.8,37,22l1,3.6c0.1,0.2,0.3,0.4,0.5,0.4l2.8,0L40,27.4c-0.1,0.1-0.2,0.3-0.1,0.4l0.4,4
		c0,0.2,0.2,0.4,0.4,0.4l0.5,0.1L41,33.2c0,0.2,0,0.3,0.2,0.4l1.5,1.5c0.1,0.1,0.2,0.1,0.3,0.1c0,0,0,0,0.1,0l2.6-0.4
		c0.2,0,0.3-0.2,0.4-0.3l0.2-0.7l0.4,0.2c0.1,0,0.1,0,0.2,0c0.1,0,0.1,0,0.2,0l3.8-1.4c1.1,1.3,1.3,1.4,1.7,1.4c0,0,0,0,0.1,0
		l-2.4,0.4c-0.2,0-0.4,0.2-0.4,0.5l-0.1,2l0.1,0.8l-3,0.9c-0.2,0.1-0.3,0.2-0.3,0.4l-0.2,1l-0.4,0l-0.9-0.3c-0.1,0-0.1,0-0.2,0
		c-0.1,0-0.2,0-0.3,0.1l-2.7,1.6l-2.2,0.1c-0.1,0-0.2,0-0.3,0.1l-6.7,5C32.9,46.5,32.9,46.6,32.8,46.6L32.8,46.6z"/>
	<path class="st3" d="M20.4,16.8l0.4,0.8c0.2,0.3,0.5,0.5,0.9,0.5c0,0,0,0,0,0l3.5-0.2l0.1,1c0,0.3,0.2,0.6,0.4,0.7
		c0.2,0.1,0.4,0.2,0.6,0.2c0.1,0,0.1,0,0.2,0l6.6-1.3l0.8,0.5c0.2,0.1,0.3,0.1,0.5,0.1c0.2,0,0.3,0,0.5-0.1l1-0.6l0.4,0l0.8,2
		l-0.5,0.8c-0.1,0.2-0.2,0.5-0.1,0.8l1,3.6c0.1,0.4,0.5,0.7,1,0.7l1.7,0L39.6,27c-0.2,0.2-0.3,0.5-0.3,0.8l0.4,4
		c0,0.5,0.4,0.8,0.8,0.9l0,0.5c0,0.3,0.1,0.6,0.3,0.8l1.5,1.5c0.2,0.2,0.4,0.3,0.7,0.3c0,0,0.1,0,0.1,0l2.6-0.4
		c0.4-0.1,0.7-0.3,0.8-0.7l0-0.1c0.1,0,0.2,0.1,0.3,0.1c0.1,0,0.2,0,0.4-0.1l3.5-1.3c0.2,0.2,0.3,0.4,0.5,0.5l-1,0.1
		c-0.5,0.1-0.8,0.5-0.9,1l-0.1,2c0,0.1,0,0.1,0,0.2l0,0.3l-2.5,0.8c-0.3,0.1-0.6,0.4-0.7,0.7l-0.1,0.5l-0.7-0.2
		c-0.1,0-0.2-0.1-0.3-0.1c-0.2,0-0.3,0-0.5,0.1l-2.6,1.5l-2,0.1c-0.2,0-0.4,0.1-0.5,0.2l-6.4,4.8l-0.3-0.5c-0.2-0.3-0.4-0.4-0.7-0.5
		l-0.5-0.1l-0.4-1.3c-0.1-0.4-0.5-0.7-0.9-0.7l-3-0.2l0.4-1.3c0.1-0.4,0-0.9-0.4-1.2l-0.9-0.5l-0.3-4.5c0-0.2-0.1-0.5-0.3-0.6
		l-1.9-2c-0.2-0.2-0.4-0.3-0.7-0.3l-4.5-0.1l-2.2-1.7c-0.2-0.1-0.4-0.2-0.6-0.2c-0.1,0-0.3,0-0.4,0.1l-1.5,0.6l-1.8-0.9
		c-0.1-0.1-0.3-0.1-0.4-0.1c0,0,0,0,0,0l-1.3,0l0.6-0.4c0.2-0.1,0.3-0.3,0.4-0.5l1-2.5l0.6-0.3c0.3-0.1,0.6-0.4,0.6-0.8l0.2-1.8
		l0.4-0.1c0.3-0.1,0.5-0.3,0.6-0.5l1.5-3.1l1.8-0.5c0.4-0.1,0.7-0.5,0.7-0.9l0.1-1L20.4,16.8 M20.3,15.6l-2.5,1.6l-0.1,1.5l-2.2,0.6
		l-1.7,3.6l-1.1,0.3l-0.3,2.4L11.4,26l-1.1,2.9l-3.5,2.3l4.7-0.1l2.2,1.1l1.9-0.8l2.5,1.9l4.9,0.1l1.9,2l0.3,5l1.3,0.8l-0.7,2
		l0.2,0.6l3.9,0.2l0.6,1.9l1.2,0.1l0.7,1.1l0.8,0.4l0-0.6l6.7-5l2.3-0.2l2.8-1.7l0.9,0.3l0.9,0.1l0.3-1.4l3.4-1l0,0l-0.2-1.2l0.1-2
		l3.7-0.6l0.1-0.7c-0.7-0.1-1.5-0.1-1.6-0.1c0,0,0,0,0,0c-0.2,0-0.3,0-1.6-1.5L47,33.6L46,33.2l-0.4,1.2L43,34.7l-1.5-1.5l0.1-1.4
		l-0.9-0.1l-0.4-4l1.6-1.6l-0.3-0.6l-3.2-0.1l-1-3.6l0.8-1.3L37,17.4l-1.3,0l-1.3,0.8l-1.2-0.7l-7,1.4l-0.1-2l-4.5,0.2L21,15.8
		L20.3,15.6L20.3,15.6z"/>
</g>
</svg>
