<?xml version="1.0" encoding="utf-8"?>
<!-- Generator: Adobe Illustrator 21.0.2, SVG Export Plug-In . SVG Version: 6.00 Build 0)  -->
<svg version="1.1" id="Camada_1" xmlns="http://www.w3.org/2000/svg" xmlns:xlink="http://www.w3.org/1999/xlink" x="0px" y="0px"
	 viewBox="0 0 60.9 60.9" style="enable-background:new 0 0 60.9 60.9;" xml:space="preserve">
<style type="text/css">
	.st0{fill:#FFFFFF;}
	.st1{fill:none;stroke:#1D1D1B;stroke-width:0.851;stroke-miterlimit:10;}
	.st2{fill:#68B2BB;}
</style>
<path class="st0" d="M30.5,61C47.3,61,61,47.4,61,30.5C60.9,13.7,47.3,0.1,30.5,0.1S0,13.7,0,30.5C0,47.3,13.6,61,30.5,61"/>
<circle class="st1" cx="30.5" cy="30.5" r="26.9"/>
<g>
	<polygon class="st2" points="22.6,21.4 26.9,22.3 26.9,23.2 24.1,26 23.6,28.6 26,30.3 28.9,28.6 32.1,25.6 42.1,33.8 44.6,36.6 
		43.8,39 43,40.5 42.3,42 40,43.1 39.3,45.2 36.7,46 36,47.7 34.1,48.7 31.7,47.8 29.4,45.7 30.5,44.2 29.6,42.4 27.4,41.9 
		26.6,39.2 24.4,38.6 23.7,36.4 20.8,35.6 20.8,33.3 18.7,32.5 17,32.9 16,29.7 	"/>
	<path d="M46.8,28l0.1-0.3l1.7,1.6l5.1-5.3l-0.8-0.8l-4.3,4.5l-0.1-0.1L37.7,17.2l3.8-4.7l-0.9-0.7l-4.5,5.6l0.8,0.8l-0.1,0.1
		c-0.2,0.2-0.6,0.6-0.9,0.6l-0.2,0c-0.8,0.1-3,0.4-4.2,0.4c-0.7,0-2.1,0.9-4,2.8l-0.1,0.1L27.4,22c-0.8-0.5-2.3-0.8-3.3-0.9l-0.2,0
		l1.2-1.6l-6.8-4.8l-0.7,1l5.8,4.1l-0.1,0.1l-9,11.6l-6.4-4.2l-0.6,1l7.3,4.8l1.4-1.8l0.6,1.6l-0.6,0.6c-0.5,0.5-0.7,1.1-0.7,1.8
		c0,0.7,0.3,1.3,0.7,1.8c0.5,0.5,1.1,0.7,1.8,0.7c0.2,0,0.5,0,0.7-0.1l0.3-0.1l-0.1,0.3c-0.1,0.2-0.1,0.5-0.1,0.7
		c0,0.7,0.3,1.3,0.7,1.8c0.5,0.5,1.3,0.8,2,0.7l0.2,0l0,0.2c0,0.1,0,0.1,0,0.2c0,0.7,0.3,1.3,0.7,1.8c0.6,0.6,1.5,0.9,2.3,0.7l0.2,0
		l0,0.2c0,0.2-0.1,0.4-0.1,0.5c0,0.7,0.3,1.3,0.7,1.8c0.5,0.5,1.1,0.7,1.8,0.7c0.7,0,1.3-0.3,1.8-0.7l0.1-0.1l0.3,0.2
		c0.1,0.1,1.6,1.3,2.2,1.8C32,49,33,49.2,34,49.2c0.7,0,1.4-0.2,1.8-0.5c0.6-0.4,1.3-1.1,1.4-2l0-0.1h0.1c0.6,0,1.3-0.3,1.9-0.8
		c0.7-0.6,1.1-1.2,1.2-1.9l0,0l0.2-0.2l0.1,0c0.5,0,1.2-0.2,1.8-0.8c0.6-0.7,0.9-1.5,0.9-2.2l0-0.1l0.1,0c0.9-0.5,1.5-2,1.5-2.1
		c0.3-1.6-0.5-2.7-1.3-3.7c-0.1-0.1-0.2-0.2-0.4-0.4l-0.1-0.1l0.1-0.1c0,0,1.9-1.6,2.5-2.5c0.6-0.8,0.8-2.1,1-3.1
		C46.8,28.3,46.8,28.1,46.8,28z M18.6,36.3c-0.3,0.3-0.6,0.4-1,0.4c-0.4,0-0.7-0.1-1-0.4c-0.3-0.3-0.4-0.6-0.4-1
		c0-0.4,0.1-0.7,0.4-1l1.1-1.1c0.5-0.5,1.4-0.5,1.9,0c0.3,0.3,0.4,0.6,0.4,1s-0.1,0.7-0.4,1L18.6,36.3z M22,39.6
		c-0.3,0.3-0.6,0.4-1,0.4s-0.7-0.1-1-0.4c-0.3-0.3-0.4-0.6-0.4-1c0-0.4,0.1-0.7,0.4-1l1.1-1.1c0.5-0.5,1.4-0.5,1.9,0
		c0.3,0.3,0.4,0.6,0.4,1c0,0.4-0.1,0.7-0.4,1L22,39.6z M24.9,42.5c-0.3,0.3-0.6,0.4-1,0.4c-0.4,0-0.7-0.1-1-0.4
		c-0.3-0.3-0.4-0.6-0.4-1c0-0.4,0.1-0.7,0.4-1l1.1-1.1c0.5-0.5,1.4-0.5,1.9,0c0.3,0.3,0.4,0.6,0.4,1c0,0.4-0.1,0.7-0.4,1L24.9,42.5z
		 M29.1,44.6L28,45.7c-0.3,0.3-0.6,0.4-1,0.4c-0.4,0-0.7-0.1-1-0.4c-0.3-0.3-0.4-0.6-0.4-1c0-0.4,0.1-0.7,0.4-1l1.1-1.1
		c0.5-0.5,1.4-0.5,1.9,0c0.3,0.3,0.4,0.6,0.4,1C29.5,44,29.4,44.3,29.1,44.6z M43.8,38.1L43.8,38.1c-0.1,0.3-0.5,0.8-0.7,1.2
		l-0.1,0.1l-0.1-0.1c-0.1-0.1-0.2-0.2-0.3-0.2l-0.1,0l-4.1-3.2l-0.7,0.9l4.4,3.5l0,0c0,0,0,0,0,0l0,0c0.2,0.5,0,1.2-0.5,1.7
		c-0.4,0.5-1.1,0.5-1.5,0.5l0,0l0,0l-4.7-3.8l-0.7,0.9l4.5,3.7l0,0c0,0,0,0,0,0.1c0.4,0.5,0,1.2-0.6,1.7c-0.4,0.3-0.9,0.5-1.2,0.5
		l0,0l-4.7-3.9l-0.8,0.9l4,3.3l0,0c0,0.1,0.1,0.1,0.1,0.2c0.1,0.2,0.2,0.3,0.1,0.6c-0.1,0.5-0.5,1-0.9,1.3c-0.3,0.2-0.7,0.3-1.1,0.3
		c-0.7,0-1.4-0.2-1.8-0.5c-0.6-0.5-2.2-1.8-2.2-1.8l-0.2-0.2l0.2-0.2c0.5-0.5,0.7-1.1,0.7-1.8c0-0.7-0.3-1.3-0.7-1.8
		c-0.6-0.6-1.5-0.9-2.3-0.7l-0.2,0l0-0.2c0-0.2,0.1-0.4,0.1-0.5c0-0.7-0.3-1.3-0.7-1.8c-0.5-0.5-1.3-0.8-2-0.7l-0.2,0l0-0.2
		c0-0.1,0-0.1,0-0.2c0-0.7-0.3-1.3-0.7-1.8c-0.5-0.5-1.1-0.7-1.8-0.7c-0.2,0-0.5,0-0.7,0.1l-0.3,0.1l0.1-0.3
		c0.1-0.2,0.1-0.5,0.1-0.7c0-0.7-0.3-1.3-0.7-1.8c-0.5-0.5-1.1-0.7-1.8-0.7c-0.4,0-0.8,0.1-1.2,0.3l-0.1,0.1l-0.7-1.8l0-0.1l6.2-8
		l0.1,0c1,0.1,2.5,0.3,3.4,0.7l0.2,0.1l-0.2,0.2c-1.2,1.2-2.6,2.8-3,3.5c-0.6,1.4,0,2.8,0.8,3.6c0.5,0.4,1,0.6,1.7,0.6
		c0.8,0,1.7-0.3,2.4-1l3.8-3.1l0.1,0.1c3.6,2.9,9.8,8,10.4,8.7C43.6,36.4,44,37.1,43.8,38.1z M45.9,26.9c-0.1,0.3-0.2,0.8-0.3,1.3
		c-0.2,0.9-0.4,2-0.8,2.6c-0.5,0.6-1.8,1.9-2.3,2.3l-0.3,0.2l-0.1-0.1c-2.4-2.1-7-5.8-8.9-7.3l-0.1-0.1l1-0.9l-0.7-0.9l-5.7,4.7
		c-0.3,0.2-1.6,1.2-2.6,0.3c-0.5-0.4-0.9-1.3-0.5-2.2c0.2-0.4,1.4-1.8,3.2-3.6c2-1.9,3.4-2.9,3.8-3c1.3,0,3.4-0.3,4.4-0.4l0.2,0
		c0.7-0.1,1.3-0.7,1.6-0.9l0.1-0.1l0.1,0.1l8.1,7.8L45.9,26.9z"/>
</g>
</svg>
