<?xml version="1.0" encoding="utf-8"?>
<!-- Generator: Adobe Illustrator 21.0.2, SVG Export Plug-In . SVG Version: 6.00 Build 0)  -->
<svg version="1.1" id="Camada_1" xmlns="http://www.w3.org/2000/svg" xmlns:xlink="http://www.w3.org/1999/xlink" x="0px" y="0px"
	 viewBox="0 0 60.9 60.9" style="enable-background:new 0 0 60.9 60.9;" xml:space="preserve">
<style type="text/css">
	.st0{fill:#FFFFFF;}
	.st1{fill:none;stroke:#1D1D1B;stroke-width:0.851;stroke-miterlimit:10;}
	.st2{fill:#68B2BB;}
	.st3{fill:#1E1E1E;}
</style>
<path class="st0" d="M30.5,61C47.3,61,61,47.4,61,30.5C60.9,13.7,47.3,0.1,30.5,0.1S0,13.7,0,30.5C0,47.3,13.6,61,30.5,61"/>
<circle class="st1" cx="30.5" cy="30.5" r="26.9"/>
<circle class="st2" cx="32.3" cy="23.1" r="7.9"/>
<g>
	<path class="st3" d="M26.7,50l4.4-13.4c0.1-0.2,0.2-0.3,0.3-0.4c0.1-0.1,0.2-0.1,0.3-0.1c2.3,0.1,4.5-0.3,6.6-1.4
		c3.1-1.6,5.4-4.2,6.5-7.5c2.3-6.8-1.4-14.2-8.2-16.5c-1.3-0.4-2.7-0.7-4.1-0.7c-2,0-4,0.5-5.8,1.4c-3.1,1.6-5.4,4.2-6.5,7.5
		c-1.9,5.6,0.3,11.7,5.2,15c0.2,0.2,0.4,0.5,0.3,0.8l-4.4,13.4c-0.5,1.5,0.4,3,1.9,3.6c0.7,0.2,1.5,0.2,2.2-0.1l0.2,0.2l-0.1-0.3
		C25.9,51.3,26.4,50.7,26.7,50z M30,37l-0.6,1.8c-0.1,0.2-0.2,0.3-0.3,0.4c-0.1,0-0.2,0.1-0.3,0.1c-0.1,0-0.1,0-0.2,0l-2.4-0.8
		c-0.2-0.1-0.3-0.2-0.4-0.3s-0.1-0.3,0-0.5l0.6-1.8c0.1-0.2,0.2-0.3,0.3-0.4l0.1,0c0.2-0.1,0.3-0.1,0.5,0c0.4,0.2,0.8,0.3,1.1,0.4
		c0.4,0.1,0.8,0.2,1.2,0.3c0.2,0,0.3,0.2,0.4,0.3C30,36.6,30,36.8,30,37z M21.1,19.4c1-3,3.2-5.5,6-7c2.9-1.4,6.1-1.7,9.2-0.7
		c6.3,2.1,9.7,8.9,7.6,15.2c-1,3-3.2,5.5-6,7c-1.7,0.9-3.5,1.3-5.4,1.3c-1.3,0-2.6-0.2-3.8-0.6C22.4,32.6,19,25.7,21.1,19.4z
		 M24.8,50.7c-0.3,0.1-0.6,0.2-0.9,0.2c-0.2,0-0.4,0-0.6-0.1c-1-0.3-1.6-1.4-1.3-2.3l2.9-8.8c0.1-0.2,0.2-0.3,0.3-0.4
		c0.2-0.1,0.3-0.1,0.5,0l2.4,0.8c0.2,0.1,0.3,0.2,0.4,0.3c0.1,0.2,0.1,0.3,0,0.5l-2.9,8.7C25.6,50.2,25.3,50.5,24.8,50.7z"/>
	<polygon class="st3" points="25.4,51.9 25.4,51.9 25.4,51.9 	"/>
	<polygon class="st3" points="31.4,36.8 31.4,36.8 31.4,36.8 	"/>
</g>
<path class="st3" d="M24.4,20.7c-0.7,2.2-0.6,4.5,0.5,6.5s2.8,3.6,4.9,4.3c2.2,0.7,4.5,0.6,6.5-0.5c2-1,3.6-2.8,4.3-4.9
	c0.7-2.2,0.6-4.5-0.5-6.5c-1-2-2.8-3.6-4.9-4.3c-0.9-0.3-1.8-0.4-2.7-0.4c-1.3,0-2.6,0.3-3.8,0.9C26.6,16.8,25.1,18.5,24.4,20.7z
	 M29.1,16.6c1.8-0.9,3.9-1.1,5.8-0.4c1.9,0.6,3.5,2,4.4,3.8s1.1,3.9,0.4,5.8s-2,3.5-3.8,4.4c-1.1,0.5-2.2,0.8-3.4,0.8
	c-0.8,0-1.6-0.1-2.4-0.4c-1.9-0.6-3.5-2-4.4-3.8c-0.9-1.8-1.1-3.9-0.4-5.8C25.9,19.1,27.3,17.5,29.1,16.6z"/>
<path class="st3" d="M33.7,19.5c-1-0.3-2-0.3-3,0.2c-0.1,0.1-0.2,0.2-0.2,0.3s0,0.3,0,0.4s0.2,0.2,0.3,0.2c0.1,0,0.3,0,0.4,0
	c0.4-0.2,0.9-0.3,1.3-0.3c1.1,0,2.1,0.6,2.6,1.6c0.1,0.1,0.2,0.2,0.3,0.2c0.1,0,0.3,0,0.4,0c0.1-0.1,0.2-0.2,0.2-0.3
	c0-0.1,0-0.3,0-0.4C35.5,20.6,34.7,19.9,33.7,19.5z"/>
</svg>
