<?xml version="1.0" encoding="utf-8"?>
<!-- Generator: Adobe Illustrator 21.0.2, SVG Export Plug-In . SVG Version: 6.00 Build 0)  -->
<svg version="1.1" id="Camada_1" xmlns="http://www.w3.org/2000/svg" xmlns:xlink="http://www.w3.org/1999/xlink" x="0px" y="0px"
	 viewBox="0 0 60.9 60.9" style="enable-background:new 0 0 60.9 60.9;" xml:space="preserve">
<style type="text/css">
	.st0{fill:#FFFFFF;}
	.st1{fill:none;stroke:#1D1D1B;stroke-width:0.851;stroke-miterlimit:10;}
	.st2{fill:#68B2BB;}
	.st3{fill:#1D1D1B;}
</style>
<path class="st0" d="M30.5,61C47.3,61,61,47.4,61,30.5C60.9,13.7,47.3,0.1,30.5,0.1S0,13.7,0,30.5C0,47.3,13.6,61,30.5,61"/>
<circle class="st1" cx="30.5" cy="30.5" r="26.9"/>
<g>
	<path class="st2" d="M28.4,50.4l3.1-3c0.1-0.1,0.2-0.3,0.1-0.5L31,43.4c0-0.2-0.3-0.4-0.5-0.4c0,0,0,0-0.1,0l-0.6,0.1l-0.4-1.5
		c0-0.2-0.2-0.4-0.4-0.4L27.2,41l-0.5-6.1c0-0.2-0.2-0.4-0.4-0.5l-1.5-0.2L24.2,32c0-0.2-0.2-0.3-0.4-0.4l-3.5-0.9l-1.6-0.9
		l-0.1-2.3c0-0.2-0.1-0.3-0.3-0.4c-0.1,0-0.2-0.1-0.2-0.1c-0.1,0-0.2,0-0.2,0.1L14.8,29L13,29.2l-0.1-1.4c0-0.2-0.1-0.3-0.2-0.4
		c-0.1,0-0.2-0.1-0.3-0.1c-0.1,0-0.1,0-0.2,0L10.8,28l-1.6-2.5l1-2.5l2.9-0.7c0.2-0.1,0.4-0.3,0.4-0.5l-0.2-6.4l2.2-0.4l1.1,1.3
		c0.1,0.1,0.2,0.2,0.4,0.2c0.1,0,0.2,0,0.2-0.1l3-1.5c0.1-0.1,0.2-0.2,0.3-0.3c0-0.1,0-0.3,0-0.4l-1-1.9l4-1l0.7,1l0.7,2.8
		c0.1,0.2,0.3,0.4,0.5,0.4c0,0,0,0,0.1,0l7.2-1.1c0.2,0,0.3-0.1,0.4-0.3l0.8-1.5l1.4,2l0,0.5L32.6,18c-0.2,0.2-0.2,0.5,0,0.7
		c0.1,0.1,0.2,0.2,0.4,0.2c0.1,0,0.2,0,0.3-0.1l1.9-1.5h1.3l-0.8,1.9c-0.1,0.2,0,0.5,0.2,0.6c0.1,0,0.2,0.1,0.3,0.1
		c0.1,0,0.3-0.1,0.4-0.2l1.6-1.9l1.2,0.2l2.2,1.9c0.1,0.1,0.2,0.1,0.3,0.1l4.9,0.5l3.1,2.5c0.1,0,0.1,0.1,0.2,0.1l1.9,0.4l0.1,3.3
		l-4.5,4.7c-0.1,0.1-0.1,0.2-0.1,0.3l-0.9,5.4l-2,4.1l-7.6,3c-0.2,0.1-0.3,0.2-0.3,0.4l-0.1,2.4l-4.7,6.3L28.4,50.4z"/>
	<path class="st3" d="M23.1,12l0.4,0.6l0.7,2.7c0.1,0.4,0.5,0.8,1,0.8c0,0,0.1,0,0.1,0l7.2-1.1c0.3,0,0.6-0.2,0.7-0.5l0.4-0.8
		l0.8,1.1l0,0.2l-2.4,2.7c-0.3,0.4-0.3,1,0,1.3c0.2,0.2,0.5,0.3,0.7,0.3c0.2,0,0.4-0.1,0.6-0.2l1.8-1.4h0.4L35.2,19
		c-0.2,0.5,0,1,0.4,1.2c0.2,0.1,0.3,0.1,0.5,0.1c0.3,0,0.6-0.1,0.8-0.4l1.4-1.7l0.8,0.1l2.1,1.8c0.2,0.1,0.3,0.2,0.5,0.2l4.7,0.5
		l3,2.5c0.1,0.1,0.3,0.2,0.4,0.2l1.5,0.3l0.1,2.7L47,31.2c-0.1,0.1-0.2,0.3-0.3,0.5l-0.9,5.3L44,40.9l-7.4,2.9
		c-0.4,0.1-0.6,0.5-0.6,0.9l-0.1,2.2l-4.2,5.8l-2.5-2.3l2.8-2.7c0.2-0.2,0.4-0.6,0.3-0.9l-0.7-3.5c-0.1-0.5-0.5-0.8-1-0.8
		c0,0-0.1,0-0.1,0l-0.2,0l-0.3-1c-0.1-0.4-0.4-0.7-0.8-0.8l-1.4-0.2l-0.5-5.7c0-0.5-0.4-0.9-0.9-0.9l-1.2-0.1l-0.4-1.9
		c-0.1-0.4-0.4-0.7-0.7-0.8l-3.4-0.9l-1.3-0.7l-0.1-2c0-0.4-0.2-0.7-0.5-0.8c-0.2-0.1-0.3-0.1-0.5-0.1c-0.2,0-0.3,0-0.5,0.1
		l-3.1,1.8l-1.1,0.1l-0.1-0.9c0-0.3-0.2-0.6-0.5-0.8c-0.2-0.1-0.3-0.1-0.5-0.1c-0.1,0-0.3,0-0.4,0.1l-1,0.5l-1.3-1.9l0.8-2l2.7-0.6
		c0.5-0.1,0.8-0.5,0.8-1l-0.2-6l1.5-0.3l0.9,1.1c0.2,0.2,0.5,0.4,0.8,0.4c0.2,0,0.3,0,0.4-0.1l3-1.5c0.2-0.1,0.4-0.3,0.5-0.6
		c0.1-0.3,0.1-0.5-0.1-0.8L20,12.8L23.1,12 M23.5,10.8l-5,1.3l1.4,2.4l-3,1.5l-1.3-1.6L12.7,15l0.2,6.8l-3.2,0.7l-1.2,3l2,3l1.8-0.9
		l0.1,2l2.4-0.3l3.3-1.9l0.1,2.6l1.9,1l3.5,0.9l0.5,2.6l1.9,0.2l0.5,6.5l2.2,0.3l0.5,1.9l1.1-0.1l0.7,3.5l-3.5,3.4l4.1,3.8l5.1-6.9
		l0.1-2.5l7.8-3l2.1-4.3l0.9-5.5l4.7-4.9l-0.1-3.9l-2.2-0.5L46.8,20l-5-0.5l-2.3-2l-1.6-0.2l-1.8,2.1l1.1-2.6H35l-2,1.6l2.6-2.9
		l0.1-0.9l-2-2.8L32.5,14l-7.2,1.1l-0.7-2.9L23.5,10.8L23.5,10.8z"/>
</g>
</svg>
