<?xml version="1.0" encoding="utf-8"?>
<!-- Generator: Adobe Illustrator 21.0.2, SVG Export Plug-In . SVG Version: 6.00 Build 0)  -->
<svg version="1.1" id="Camada_1" xmlns="http://www.w3.org/2000/svg" xmlns:xlink="http://www.w3.org/1999/xlink" x="0px" y="0px"
	 viewBox="0 0 60.9 60.9" style="enable-background:new 0 0 60.9 60.9;" xml:space="preserve">
<style type="text/css">
	.st0{fill:#FFFFFF;}
	.st1{fill:none;stroke:#1D1D1B;stroke-width:0.851;stroke-miterlimit:10;}
	.st2{fill:#68B2BB;}
	.st3{fill:none;stroke:#000000;stroke-width:0.8504;stroke-linecap:round;stroke-linejoin:round;stroke-miterlimit:10;}
</style>
<path class="st0" d="M30.5,61C47.3,61,61,47.4,61,30.5C60.9,13.7,47.3,0.1,30.5,0.1S0,13.7,0,30.5C0,47.3,13.6,61,30.5,61"/>
<circle class="st1" cx="30.5" cy="30.5" r="26.9"/>
<g>
	<path d="M42.3,28.2c0.2,0,0.3-0.1,0.4-0.2l4.2-5.2c0.1-0.2,0.2-0.4,0-0.6L42.7,17c-0.1-0.1-0.2-0.2-0.4-0.2H29.7v-3
		c0-0.3-0.2-0.5-0.5-0.5h-3.8c-0.3,0-0.5,0.2-0.5,0.5v3h-3.7c-0.3,0-0.5,0.2-0.5,0.5v10.4c0,0.1,0.1,0.3,0.1,0.4
		c0.1,0.1,0.2,0.1,0.4,0.1L42.3,28.2z M26,14.4h2.8v2.5H26V14.4z M21.8,17.8H42l3.8,4.7L42,27.2l-20.3,0V17.8z"/>
	<path d="M20.3,46.8h14c0.3,0,0.5-0.2,0.5-0.5c0-0.3-0.2-0.5-0.5-0.5h-4.6V34.4h4.7c0.3,0,0.5-0.2,0.5-0.5v-6.1h-1v5.6H13.6
		l-3.8-4.7l3.8-4.7h7.6v-1h-7.8c-0.2,0-0.3,0.1-0.4,0.2l-4.2,5.2c-0.1,0.2-0.1,0.4,0,0.6l4.2,5.2c0.1,0.1,0.2,0.2,0.4,0.2H25v11.4
		h-4.6c-0.3,0-0.5,0.2-0.5,0.5C19.8,46.6,20.1,46.8,20.3,46.8z M26,34.4h2.8v11.4H26V34.4z"/>
</g>
<g>
	<g>
		<path class="st2" d="M46.6,32.6c-3.5-3.5-9.1-3.5-12.5,0l-1,1l-1.1-1.1h-0.4v4.2h4.2v-0.4l-0.9-0.9l1.1-1.1
			c1.2-1.2,2.9-1.8,4.5-1.8c1.6,0,3.2,0.6,4.5,1.9c1.3,1.3,1.9,3.1,1.8,4.8h2.5C49.2,36.7,48.4,34.4,46.6,32.6z"/>
		<path class="st2" d="M45,40.9v0.4l0.9,0.9l-1,1c-2.5,2.5-6.5,2.4-8.9,0c-1.3-1.3-1.9-3.1-1.8-4.8h-2.5c-0.1,2.5,0.8,4.8,2.6,6.6
			c3.5,3.5,9.1,3.5,12.5,0l1-1l1.1,1.1h0.4v-4.2H45z"/>
	</g>
	<g>
		<path class="st3" d="M46.6,32.6c-3.5-3.5-9.1-3.5-12.5,0l-1,1l-1.1-1.1h-0.4v4.2h4.2v-0.4l-0.9-0.9l1.1-1.1
			c1.2-1.2,2.9-1.8,4.5-1.8c1.6,0,3.2,0.6,4.5,1.9c1.3,1.3,1.9,3.1,1.8,4.8h2.5C49.2,36.7,48.4,34.4,46.6,32.6z"/>
		<path class="st3" d="M45,40.9v0.4l0.9,0.9l-1,1c-2.5,2.5-6.5,2.4-8.9,0c-1.3-1.3-1.9-3.1-1.8-4.8h-2.5c-0.1,2.5,0.8,4.8,2.6,6.6
			c3.5,3.5,9.1,3.5,12.5,0l1-1l1.1,1.1h0.4v-4.2H45z"/>
	</g>
</g>
</svg>
