<?xml version="1.0" encoding="utf-8"?>
<!-- Generator: Adobe Illustrator 21.0.2, SVG Export Plug-In . SVG Version: 6.00 Build 0)  -->
<svg version="1.1" id="Camada_1" xmlns="http://www.w3.org/2000/svg" xmlns:xlink="http://www.w3.org/1999/xlink" x="0px" y="0px"
	 viewBox="0 0 60.9 60.9" style="enable-background:new 0 0 60.9 60.9;" xml:space="preserve">
<style type="text/css">
	.st0{fill:#FFFFFF;}
	.st1{fill:none;stroke:#1D1D1B;stroke-width:0.851;stroke-miterlimit:10;}
	.st2{fill:#1E1E1E;stroke:#FFFFFF;stroke-width:0.5669;stroke-miterlimit:10;}
	.st3{fill:#68B2BB;}
	.st4{fill:none;stroke:#000000;stroke-width:0.8504;stroke-linecap:round;stroke-linejoin:round;stroke-miterlimit:10;}
</style>
<path class="st0" d="M30.5,61C47.3,61,61,47.4,61,30.5C60.9,13.7,47.3,0.1,30.5,0.1S0,13.7,0,30.5C0,47.3,13.6,61,30.5,61"/>
<circle class="st1" cx="30.5" cy="30.5" r="26.9"/>
<g>
	<g>
		<path class="st2" d="M23.7,50C23.7,50,23.6,50,23.7,50c-0.8,0.4-1.6,0.4-2.4,0.2c-1.6-0.5-2.5-2.2-2-3.8l4.3-12.8
			c0.1-0.2,0-0.3-0.1-0.4c-4.8-3.2-6.9-9.2-5.1-14.7c1.1-3.2,3.3-5.8,6.4-7.4s6.5-1.8,9.7-0.7c6.7,2.2,10.3,9.5,8.1,16.1
			c-1.1,3.2-3.3,5.8-6.4,7.4c-2,1-4.2,1.5-6.5,1.3c-0.1,0-0.1,0-0.2,0c-0.1,0-0.1,0.1-0.2,0.2l-4.3,12.8C24.9,49,24.4,49.6,23.7,50
			C23.7,50,23.7,50,23.7,50z M23.7,38.3c-0.1,0-0.1,0.1-0.2,0.2l-2.8,8.4c-0.3,0.8,0.2,1.6,1,1.9c0.4,0.1,0.8,0.1,1.2-0.1l0,0
			c0.3-0.2,0.6-0.5,0.7-0.8l2.8-8.4c0-0.1,0-0.2,0-0.3c0-0.1-0.1-0.1-0.2-0.2L24,38.2C23.9,38.2,23.8,38.2,23.7,38.3z M25,34.5
			c-0.1,0-0.1,0.1-0.2,0.2l-0.6,1.7c0,0.1,0,0.2,0,0.3c0,0.1,0.1,0.1,0.2,0.2l2.3,0.8c0.1,0,0.2,0,0.3,0c0.1,0,0.1-0.1,0.2-0.2
			l0.6-1.7c0-0.1,0-0.2,0-0.3c0-0.1-0.1-0.2-0.2-0.2c-0.4-0.1-0.8-0.2-1.1-0.3c-0.4-0.1-0.7-0.3-1.1-0.4
			C25.2,34.4,25.1,34.4,25,34.5C25,34.4,25,34.4,25,34.5z M25.4,12.4c-2.7,1.4-4.7,3.7-5.7,6.5c-2,5.9,1.2,12.3,7.2,14.3
			c2.9,1,5.9,0.7,8.6-0.6c2.7-1.4,4.7-3.7,5.7-6.5c2-5.9-1.2-12.3-7.2-14.3C31.2,10.8,28.1,11.1,25.4,12.4z"/>
	</g>
	<g>
		<path class="st2" d="M34.2,30.2c-2,1-4.3,1.2-6.5,0.5c-2.1-0.7-3.9-2.2-4.9-4.2c-1-2-1.2-4.3-0.5-6.5c0.7-2.1,2.2-3.9,4.2-4.9
			c2-1,4.3-1.2,6.5-0.5c2.1,0.7,3.9,2.2,4.9,4.2c1,2,1.2,4.3,0.5,6.5C37.8,27.5,36.3,29.2,34.2,30.2z M27.3,16.4
			c-1.7,0.8-2.9,2.3-3.5,4c-0.6,1.8-0.5,3.7,0.4,5.3c0.8,1.7,2.3,2.9,4,3.5c1.8,0.6,3.7,0.5,5.3-0.4c1.7-0.8,2.9-2.3,3.5-4
			c0.6-1.8,0.5-3.7-0.4-5.3c-0.8-1.7-2.3-2.9-4-3.5C30.9,15.4,29,15.6,27.3,16.4L27.3,16.4z"/>
	</g>
	<g>
		<path class="st2" d="M33.8,21.7c-0.4,0.2-0.8,0-1-0.3c-0.6-1.3-2.2-1.8-3.4-1.1c-0.4,0.2-0.8,0-1-0.3c-0.2-0.4,0-0.8,0.3-1
			c2-1,4.4-0.2,5.4,1.8C34.3,21.1,34.1,21.5,33.8,21.7z"/>
	</g>
</g>
<g>
	<g>
		<path class="st3" d="M46.6,32.6c-3.5-3.5-9.1-3.5-12.5,0l-1,1l-1.1-1.1h-0.4v4.2h4.2v-0.4l-0.9-0.9l1.1-1.1
			c1.2-1.2,2.9-1.8,4.5-1.8c1.6,0,3.2,0.6,4.5,1.9c1.3,1.3,1.9,3.1,1.8,4.8h2.5C49.2,36.7,48.4,34.4,46.6,32.6z"/>
		<path class="st3" d="M45,40.9v0.4l0.9,0.9l-1,1c-2.5,2.5-6.5,2.4-8.9,0c-1.3-1.3-1.9-3.1-1.8-4.8h-2.5c-0.1,2.5,0.8,4.8,2.6,6.6
			c3.5,3.5,9.1,3.5,12.5,0l1-1l1.1,1.1h0.4v-4.2H45z"/>
	</g>
	<g>
		<path class="st4" d="M46.6,32.6c-3.5-3.5-9.1-3.5-12.5,0l-1,1l-1.1-1.1h-0.4v4.2h4.2v-0.4l-0.9-0.9l1.1-1.1
			c1.2-1.2,2.9-1.8,4.5-1.8c1.6,0,3.2,0.6,4.5,1.9c1.3,1.3,1.9,3.1,1.8,4.8h2.5C49.2,36.7,48.4,34.4,46.6,32.6z"/>
		<path class="st4" d="M45,40.9v0.4l0.9,0.9l-1,1c-2.5,2.5-6.5,2.4-8.9,0c-1.3-1.3-1.9-3.1-1.8-4.8h-2.5c-0.1,2.5,0.8,4.8,2.6,6.6
			c3.5,3.5,9.1,3.5,12.5,0l1-1l1.1,1.1h0.4v-4.2H45z"/>
	</g>
</g>
</svg>
