<?xml version="1.0" encoding="UTF-8"?>
<svg id="Layer_2" data-name="Layer 2" xmlns="http://www.w3.org/2000/svg" viewBox="0 0 499.9 499.08">
  <defs>
    <style>
      .cls-1 {
        fill: #fff;
      }

      .cls-2 {
        fill: #af1c27;
      }
    </style>
  </defs>
  <g id="Camada_1" data-name="Camada 1">
    <path class="cls-1" d="M249.95,499.08c137.68,0,249.95-111.45,249.95-249.95C499.08,111.45,387.63,0,249.95,0S0,111.45,0,249.95s111.45,249.13,249.95,249.13"/>
    <g id="_2008_-_9_10" data-name="2008 - 9/10">
      <path class="cls-2" d="M414.83,332.19c-2.86,22.04-20.32,39.44-42.35,42.35h-148.01c-1.32,0-1.6-1.77-.34-2.23,17.86-6.12,31.08-22.15,33.08-41.55.29-2.86,2.75-5.04,5.67-5.04h146.35c3.38.06,6.07,3.09,5.61,6.47h0Z"/>
      <path class="cls-2" d="M127.86,129.24l.46-6.81h-1.72c-22.03,2.92-39.44,20.32-42.35,42.35-.46,3.43,2.29,6.47,5.72,6.47h74.69c-.06-21.12-15.85-39.2-36.8-42.01h0Z"/>
      <path class="cls-2" d="M320.8,122.43h-182.41c-1.26,0-1.55,1.77-.34,2.17,19.46,6.58,33.48,24.95,33.48,46.64v203.29h42.41c.1.01.19.05.29.06v-.06s0,0,0,0c0,0,10.06-7.13,18.45-14.19,2.71-1.91,5.11-4.18,7.29-6.66,1.54-1.59,2.76-3.04,3.38-4.19.04-.07.06-.2.09-.28,3.61-5.46,6.04-11.77,6.79-18.63.74-6.41,6.12-11.68,12.53-11.68h100.79v-147.66c0-25.01-18.6-45.61-42.75-48.82ZM210.22,183.27h114.58c2.86,0,5.15,2.29,5.15,5.15s-2.29,5.15-5.15,5.15h-114.58c-2.86,0-5.15-2.29-5.15-5.15s2.35-5.15,5.15-5.15ZM210.22,219.15h114.58c2.86,0,5.15,2.29,5.15,5.15s-2.29,5.15-5.15,5.15h-114.58c-2.86,0-5.15-2.29-5.15-5.15s2.35-5.15,5.15-5.15ZM324.86,301.23h-89.57c-2.86,0-5.15-2.29-5.15-5.15s2.29-5.15,5.15-5.15h89.57c2.86,0,5.15,2.29,5.15,5.15s-2.35,5.15-5.15,5.15ZM324.86,265.34h-114.64c-2.86,0-5.15-2.29-5.15-5.15s2.29-5.15,5.15-5.15h114.64c2.86,0,5.15,2.29,5.15,5.15s-2.29,5.15-5.15,5.15Z"/>
    </g>
  </g>
</svg>