<?xml version="1.0" encoding="UTF-8"?>
<svg id="Layer_2" xmlns="http://www.w3.org/2000/svg" version="1.1" viewBox="0 0 499.9 499.1">
  <!-- Generator: Adobe Illustrator 29.0.0, SVG Export Plug-In . SVG Version: 2.1.0 Build 186)  -->
  <defs>
    <style>
      .st0 {
        fill: #fff;
      }

      .st1 {
        fill: #af1c27;
      }
    </style>
  </defs>
  <g id="_20_07_2012">
    <path class="st1" d="M249.9,499.1c137.7,0,249.9-111.4,249.9-249.9C499.1,111.4,387.6,0,249.9,0S0,111.4,0,249.9s111.4,249.1,249.9,249.1"/>
    <g>
      <path class="st0" d="M199.8,415.6c1.8,8.1-3.9,16-12.6,17.6h0c-8.7,1.6-17.2-3.6-19-11.7L100.1,109.4c-1.8-8.1,3.9-16,12.6-17.6h0c8.7-1.6,17.2,3.6,19,11.7l68.1,312.1h0Z"/>
      <path class="st0" d="M358.4,117.5c-60,5.5-70.7-22.1-128-21.3-32.7.5-65.2,8.5-81.4,14.5l40.7,186.3c9.9-3.3,24.4-6.1,44-4.7,26,1.8,35.7,19.2,93.9,15.2,41.8-2.9,64.9-26.2,64.9-26.2l18.7-183.2s-11.7,15.7-52.8,19.5h0Z"/>
    </g>
  </g>
</svg>