<?xml version="1.0" encoding="UTF-8"?>
<svg id="Layer_2" xmlns="http://www.w3.org/2000/svg" version="1.1" viewBox="0 0 499.9 499.1">
  <!-- Generator: Adobe Illustrator 29.0.0, SVG Export Plug-In . SVG Version: 2.1.0 Build 186)  -->
  <defs>
    <style>
      .st0 {
        fill: #fff;
      }

      .st1 {
        fill: #af1c27;
      }

      .st2 {
        fill: none;
        stroke: #fff;
        stroke-linecap: round;
        stroke-miterlimit: 10;
        stroke-width: 6px;
      }
    </style>
  </defs>
  <g id="_09_10_2012">
    <path class="st1" d="M249.9,499.1c137.7,0,249.9-111.4,249.9-249.9C499.1,111.4,387.6,0,249.9,0S0,111.4,0,249.9s111.4,249.1,249.9,249.1"/>
    <g>
      <path class="st0" d="M187,209.6v-81.2c0-3.7,3.1-6.7,6.9-6.7h185.8c2,0,4,.9,5.3,2.4l35.6,41.5c2.1,2.4,2.1,5.9.1,8.4l-34.1,42c-1.3,1.6-3.3,2.6-5.5,2.5l-187.3-2.2c-3.8,0-6.8-3-6.8-6.7h0Z"/>
      <path class="st0" d="M183.2,212.3v-39.7l-59.2-.7c-2.3,0-4.4,1-5.8,2.8l-34.9,44.1c-2.2,2.7-2.1,6.6.1,9.2l36.4,43.6c1.4,1.7,3.4,2.6,5.6,2.6h190.7c4,0,7.3-3.3,7.3-7.3v-45.6l-133.1-1.6c-4,0-7.2-3.3-7.2-7.3h0Z"/>
      <line class="st2" x1="178.7" y1="398" x2="308.4" y2="398"/>
      <path class="st0" d="M229.6,276.9h29.3c2.2,0,3.9,1.8,3.9,3.9v117.1h-37.2v-117.1c0-2.2,1.8-4,4-4Z"/>
      <rect class="st0" x="231.3" y="98.1" width="25.9" height="30.8" rx="4.7" ry="4.7"/>
    </g>
  </g>
</svg>