<?xml version="1.0" encoding="UTF-8"?>
<svg id="Layer_2" data-name="Layer 2" xmlns="http://www.w3.org/2000/svg" viewBox="0 0 499.9 499.08">
  <defs>
    <style>
      .cls-1 {
        fill: #af1c27;
        fill-rule: evenodd;
        stroke: #af1c27;
        stroke-miterlimit: 10;
        stroke-width: 5px;
      }

      .cls-2 {
        fill: #fff;
      }
    </style>
  </defs>
  <g id="_06_12_2013" data-name="06_12_2013">
    <path class="cls-2" d="M249.95,499.08c137.68,0,249.95-111.45,249.95-249.95C499.08,111.45,387.63,0,249.95,0S0,111.45,0,249.95s111.45,249.13,249.95,249.13"/>
    <path class="cls-1" d="M374.1,148.07l47.94,80.94,26.69-15.41-48.82-80.43-25.8,14.9ZM191.29,355.35l9.86-15.46h0l17.48-27.39h0l8.96-14.02c3.56-5.63,2.04-13.06-3.44-16.85-.23-.12-.44-.26-.65-.42-5.74-3.38-13.12-1.63-16.73,3.97l-.32.5c-.5,1.26-1.11,2.47-1.83,3.61l-.16.23h0l-28.91,44.55-.17.26-4.93,7.73c-3.56,5.63-2.04,13.07,3.45,16.85.23.12.44.26.65.42,5.74,3.38,13.13,1.63,16.74-3.97h0ZM167.49,328.04l-.36.55c-3.72,5.61-11.16,7.35-16.99,3.97-.18-.13-.37-.25-.56-.35-5.45-3.64-7.01-10.96-3.52-16.51l.09-.14h0l28.91-44.55c1.81-2.76,4.63-4.7,7.86-5.39.12-.03.24-.06.36-.09,3.11-.61,6.34,0,9.03,1.68l.14.09h0c4.61,2.98,6.63,8.69,4.93,13.92l-29.88,46.84h-.02ZM128.26,149.53l-26.78-15.46-50.41,85.08,26.78,15.46,50.41-85.08ZM129.21,277.51c-.1.18-.21.35-.33.51l-6.88,10.79c-.13.25-.28.48-.45.71-3.31,5.61-1.72,12.82,3.64,16.53.23.12.44.26.65.41,5.74,3.38,13.13,1.63,16.74-3.97l17.23-27c.13-.25.28-.49.45-.71,3.31-5.61,1.71-12.83-3.65-16.53-.23-.13-.44-.27-.65-.42-5.61-3.31-12.82-1.72-16.52,3.64-.13.25-.28.49-.45.71l-9.77,15.32h0ZM231.73,356.55l-1.25,1.99c-3.69,5.72-11.3,7.4-17.06,3.77h0c-5.71-3.69-7.39-11.29-3.77-17.04l17.49-27.41c3.61-5.59,10.98-7.33,16.71-3.96.21.16.42.29.65.42,5.48,3.78,7,11.22,3.44,16.85l-16.17,25.36h0l-.04.04ZM297.7,232.71l73.35,50.07c.11.08.22.14.33.21l.07.05.15.09c3.4,2.17,5.92,5.46,7.14,9.3.04.13.08.24.12.36.95,3.11.56,6.48-1.08,9.29l-.09.14h0c-1.93,2.8-4.99,4.62-8.37,4.97-4.13.5-8.31-.47-11.8-2.75h0l-.08-.05-10.63-6.82-.19-.13h0l-.34-.21-36.49-23.49c-2.38-1.44-5.47-.68-6.9,1.7-1.39,2.29-.73,5.26,1.48,6.77l36.48,23.49.19.14h0c.11.08.23.14.35.21l.35.23c3.01,1.94,5.2,4.91,6.14,8.36.75,3.11.23,6.39-1.45,9.11-.15.2-.29.41-.41.64-1.94,2.65-4.91,4.35-8.17,4.69-4.18.5-8.39-.49-11.91-2.8h0l-8.03-5.14c-.09-.07-.18-.14-.28-.2h0c-.16-.1-.32-.2-.48-.28l-23.46-14.96c-2.34-1.49-5.44-.8-6.93,1.54s-.8,5.44,1.54,6.93l23.46,14.95.29.21h0c.15.1.3.18.45.26,3.41,2.21,5.96,5.52,7.23,9.38,1.12,3.23.75,6.79-1,9.73h0c-1.92,2.82-4.98,4.65-8.38,5-4.18.5-8.39-.49-11.91-2.8l-9.2-5.87-.04-.02h0l-12.31-7.85c-2.34-1.49-5.44-.8-6.93,1.54-1.49,2.34-.8,5.44,1.54,6.93l12.37,7.89c3.52,2.22,6.15,5.6,7.43,9.55,2.14,5.62-.69,11.91-6.31,14.05-.99.37-2.02.6-3.07.68-4.18.5-8.39-.49-11.91-2.8l-27.1-17.3,13.49-21.15c6.62-10.43,3.57-24.24-6.82-30.91h0c-3.74-2.38-8.1-3.6-12.53-3.49,5.33-10.29,1.95-22.95-7.8-29.22h0c-6.61-4.19-14.93-4.64-21.96-1.18-1.41-5.3-4.74-9.89-9.34-12.88h0l-.23-.16c-4.89-3.06-10.77-4.14-16.43-3-.17.02-.33.05-.49.09-3.72.82-7.18,2.56-10.06,5.06-1.66-4.64-4.81-8.59-8.97-11.25h-.04c-10.43-6.61-24.24-3.56-30.91,6.83h0l-7.11,11.14c-1.35-1.29-2.71-2.65-4.11-4.06-5.37-5.76-11.41-10.86-17.99-15.18-.15-.09-.3-.18-.45-.26l-14.54-8.4,50.38-85.11,14.85,8.58.09.05c10.37,5.81,21.4,10.35,32.85,13.52,9.47,2.83,18.73,6.31,27.72,10.42-2.76,4.06-5.45,8.28-8.13,12.47-5.45,9.1-11.62,17.75-18.45,25.87-2.28,2.51-3.06,6.04-2.06,9.28.94,3.11,2.66,5.92,4.99,8.17,18.1,18.07,32.21,10.47,45.08-2.43,3.38-3.39,6.43-6.9,9.45-10.39,8-9.2,15.76-18.11,22.84-17.77,1.54.41,3,1.1,4.3,2.02,2.84,1.75,5.5,3.77,7.95,6.03,5.68,5.15,12.18,9.31,19.24,12.31h0ZM413.32,234.04l-14.62,8.43h0c-6.35,4.03-11.69,9.48-15.58,15.92-3.1,4.79-6.87,9.1-11.21,12.8l-45.26-30.88c7.51.97,15.15.28,22.37-2.02,2.6-.99,3.9-3.9,2.91-6.49-.99-2.6-3.9-3.9-6.49-2.91h0c-7,2.67-18.69,2.26-30.6-.81-4.2-1.08-8.32-2.48-12.31-4.18-.21-.11-.43-.2-.65-.28-6.06-2.55-11.64-6.1-16.52-10.51-2.96-2.73-6.18-5.18-9.61-7.29-2.71-1.85-5.81-3.04-9.06-3.48-11.97-.58-21.31,10.14-30.91,21.19-3.03,3.48-6.08,6.99-8.98,9.9-9.01,9.03-18.78,14.45-30.87,2.39-1.06-.98-1.87-2.2-2.35-3.57-.03-.11-.28.08-.19-.03,7.19-8.53,13.69-17.63,19.42-27.21,14.39-22.55,29.08-45.56,56.3-43.6,9.48.68,18.25,1.92,26.4,3.08,20.12,2.85,36.79,5.23,53.43-1.91.2-.08.4-.18.59-.3l15.83-9.14,47.96,80.92Z"/>
  </g>
</svg>