<?xml version="1.0" encoding="UTF-8"?>
<svg id="Layer_2" data-name="Layer 2" xmlns="http://www.w3.org/2000/svg" viewBox="0 0 499.9 499.08">
  <defs>
    <style>
      .cls-1 {
        fill: #fff;
      }

      .cls-2 {
        fill: #af1c27;
      }
    </style>
  </defs>
  <g id="_22_04_2013" data-name="22_04_2013">
    <g>
      <path class="cls-1" d="M249.95,499.08c137.68,0,249.95-111.45,249.95-249.95C499.08,111.45,387.63,0,249.95,0S0,111.45,0,249.95s111.45,249.13,249.95,249.13"/>
      <path class="cls-2" d="M269.68,387.62l-5.39-8.99c-.9-.9-1.8-1.8-3.6-1.8l-7.19-.9-4.49-14.38c-.9-1.8-1.8-2.7-4.49-2.7l-32.36-1.8v-.9l5.39-16.18c.9-1.8,0-4.49-1.8-5.39l-10.79-6.29-2.7-43.15c0-.9-.9-1.8-.9-2.7l-17.08-17.98c-.9-.9-1.8-.9-2.7-1.8l-42.25-.9-21.57-14.38c-.9-.9-1.8-.9-2.7-.9h-1.8l-15.28,6.29-17.98-8.99c-.9,0-.9-.9-1.8-.9l-26.97.9,18.88-12.58c.9-.9,1.8-.9,1.8-1.8l8.99-24.27,8.09-2.7c1.8-.9,2.7-1.8,2.7-3.6l2.7-18.88,7.19-1.8c.9,0,1.8-.9,2.7-2.7l14.38-30.56,17.98-4.49c1.8-.9,3.6-1.8,3.6-3.6l.9-10.79,18.88-12.58,1.8.9,5.39,9.89c.9,1.8,2.7,2.7,3.6,2.7l35.95-1.8.9,13.48c0,.9.9,2.7,1.8,3.6s1.8.9,2.7.9h.9l61.12-11.69,8.99,5.39c.9,0,1.8.9,2.7.9s1.8,0,2.7-.9l10.79-6.29h8.09l9.89,23.37-5.39,9.89c-4.49,0-4.49.9-4.49,2.7l8.99,32.36c.9,1.8,2.7,3.6,4.49,3.6h25.17l-11.69,12.58c-.9.9-1.8,2.7-.9,3.6l3.6,35.95c0,1.8,1.8,3.6,3.6,3.6l4.49.9-1.8,8.09c0,1.8,0,2.7,1.8,3.6l13.48,13.48c.9.9,1.8.9,2.7.9h.9l23.37-3.6c1.8,0,2.7-1.8,3.6-2.7l1.8-6.29,3.6,1.8h3.6l34.16-12.58c9.89,11.69,11.69,12.58,15.28,12.58h.9l-21.57,3.6c-1.8,0-3.6,1.8-3.6,4.49l-.9,17.98.9,7.19-26.97,8.09c-1.8.9-2.7,1.8-2.7,3.6l-1.8,8.99h-3.6l-8.09-2.7h-1.8c-.9,0-1.8,0-2.7.9l-24.27,14.38-19.78.9c-.9,0-1.8,0-2.7.9l-60.22,44.94c1.8-.9,1.8,0,.9,0h0Z"/>
    </g>
  </g>
</svg>