<?xml version="1.0" encoding="UTF-8"?>
<svg id="Layer_2" data-name="Layer 2" xmlns="http://www.w3.org/2000/svg" viewBox="0 0 499.9 499.08">
  <defs>
    <style>
      .cls-1 {
        fill: #fff;
      }

      .cls-2 {
        fill: #af1c27;
        fill-rule: evenodd;
      }
    </style>
  </defs>
  <g id="_29_07_2013" data-name="29_07_2013">
    <path class="cls-1" d="M249.95,499.08c137.68,0,249.95-111.45,249.95-249.95C499.08,111.45,387.63,0,249.95,0S0,111.45,0,249.95s111.45,249.13,249.95,249.13"/>
    <path class="cls-2" d="M404.92,405.57c-10.77,10.77-27.46,10.49-37.47-.25l-61.18-65.58,32.84-32.84,65.58,61.18c10.74,10.02,11.02,26.71.25,37.47h-.01ZM206.77,87.57c-66.18,0-119.84,53.66-119.84,119.84s53.66,119.84,119.84,119.84,119.84-53.66,119.84-119.84c.01-66.18-53.62-119.84-119.84-119.84ZM223.68,134.87c-1.81-.43-2.98-2.23-2.55-4.07.43-1.81,2.23-2.98,4.07-2.55,31.99,7.4,56.5,33.54,61.79,65.97.28,1.84-.95,3.58-2.8,3.9-1.84.28-3.58-.95-3.9-2.8-4.86-29.66-27.32-53.66-56.61-60.43v-.03ZM206.77,106.28c-55.87,0-101.15,45.28-101.15,101.15s45.28,101.15,101.15,101.15,101.15-45.28,101.15-101.15-45.28-101.15-101.15-101.15ZM206.77,113.08c52.12,0,94.34,42.24,94.34,94.34s-42.24,94.34-94.34,94.34-94.34-42.24-94.34-94.34,42.24-94.34,94.34-94.34ZM301.61,334.74l32.49-32.49-23.66-22.07c-8.43,12.01-18.92,22.46-30.89,30.89l22.07,23.66h-.01Z"/>
  </g>
</svg>