<?xml version="1.0" encoding="UTF-8"?>
<svg id="Layer_2" data-name="Layer 2" xmlns="http://www.w3.org/2000/svg" viewBox="0 0 504.9 504.08">
  <defs>
    <style>
      .cls-1 {
        fill: #fff;
      }

      .cls-2 {
        fill: #af1c27;
        stroke: #af1c27;
        stroke-miterlimit: 10;
        stroke-width: 5px;
      }
    </style>
  </defs>
  <g id="_01_10_2014" data-name="01_10_2014">
    <path class="cls-2" d="M252.45,501.58c137.68,0,249.95-111.45,249.95-249.95C501.58,113.95,390.13,2.5,252.45,2.5S2.5,113.95,2.5,252.45s111.45,249.13,249.95,249.13"/>
    <g>
      <path class="cls-1" d="M355.02,187.08h-205.25c-1.61,0-2.88,1.26-2.88,2.88v126.23c0,1.55,1.29,2.82,2.88,2.82h205.25c1.59,0,2.88-1.26,2.88-2.82v-126.23c0-1.61-1.26-2.88-2.88-2.88ZM252.4,305.71c-29.04,0-52.67-23.63-52.67-52.67s23.63-52.67,52.67-52.67,52.67,23.63,52.67,52.67-23.63,52.67-52.67,52.67Z"/>
      <path class="cls-1" d="M252.4,206.24c-25.81,0-46.8,21-46.8,46.8s21,46.8,46.8,46.8,46.8-21,46.8-46.8-21-46.8-46.8-46.8ZM267.33,259.63l-21.38,13.7c-5.18,3.33-12.03-.38-12.03-6.53v-27.46c0-6.14,6.78-9.92,11.97-6.59l21.44,13.76c4.74,3.07,4.74,10.05,0,13.12Z"/>
      <path class="cls-1" d="M365.36,160.66h-225.98c-10.45,0-18.9,8.45-18.9,18.9v146.95c0,10.39,8.45,18.9,18.9,18.9h225.98c10.45,0,18.96-8.51,18.96-18.9v-146.95c0-10.45-8.51-18.9-18.96-18.9ZM363.77,316.18c0,4.79-3.92,8.69-8.75,8.69h-205.25c-4.82,0-8.75-3.9-8.75-8.69v-126.23c0-4.82,3.92-8.75,8.75-8.75h205.25c4.82,0,8.75,3.92,8.75,8.75v126.23Z"/>
    </g>
  </g>
</svg>