<?xml version="1.0" encoding="UTF-8"?>
<svg id="Layer_2" data-name="Layer 2" xmlns="http://www.w3.org/2000/svg" viewBox="0 0 504.9 504.08">
  <defs>
    <style>
      .cls-1 {
        fill: #fff;
      }

      .cls-2 {
        fill: #af1c27;
        stroke: #af1c27;
        stroke-miterlimit: 10;
        stroke-width: 5px;
      }
    </style>
  </defs>
  <g id="_03_04_2014" data-name="03_04_2014">
    <path class="cls-2" d="M252.45,501.58c137.68,0,249.95-111.45,249.95-249.95C501.58,113.95,390.13,2.5,252.45,2.5S2.5,113.95,2.5,252.45s111.45,249.13,249.95,249.13"/>
    <g id="Layer_10" data-name="Layer 10">
      <path class="cls-1" d="M147.34,339.2c-.3.52-.58.99-.88,1.52l-13.99,39.82c-.64,1.84-.13,3.9,1.31,5.23l-6.24,7.91c-1.65,2.11-1.34,5.13.71,6.85l.11.09c1.03.81,2.34,1.18,3.65,1.03,1.3-.15,2.48-.82,3.29-1.84l6.03-7.67.21.18c1.58,1.35,3.83,1.55,5.63.53l36.71-20.81c.46-.39.88-.75,1.34-1.14l89.79-107.33-37.9-31.68-89.78,107.32Z"/>
      <path class="cls-1" d="M373.27,107.46c-7.34-6.1-18.22-5.13-24.35,2.17l-4.16,4.97c11.79,2.9,21.58,11.09,26.53,22.18l4.16-4.97c6.1-7.33,5.13-18.21-2.17-24.35Z"/>
      <path class="cls-1" d="M354.25,130.21c-12.55-10.5-31.24-8.83-41.74,3.73l-69.69,83.36c-1.75,2.1-1.47,5.2.62,6.96l37.89,31.69h0c2.1,1.73,5.2,1.46,6.96-.63l61.59-73.67,4.26,10.32-64.61,77.28c-1.75,2.09-1.47,5.2.62,6.96,2.09,1.75,5.2,1.47,6.95-.62l66.53-79.58c1.17-1.43,1.47-3.38.77-5.09l-7.38-17.83.95-1.14h0c10.49-12.55,8.83-31.24-3.73-41.73h0Z"/>
    </g>
  </g>
</svg>