<?xml version="1.0" encoding="UTF-8"?>
<svg id="Layer_2" data-name="Layer 2" xmlns="http://www.w3.org/2000/svg" viewBox="0 0 499.9 499.08">
  <defs>
    <style>
      .cls-1 {
        fill: #fff;
      }

      .cls-2 {
        fill: #af1c27;
        stroke: #af1c27;
        stroke-miterlimit: 10;
        stroke-width: 5px;
      }
    </style>
  </defs>
  <g id="_18_09_2015" data-name="18_09_2015">
    <path class="cls-1" d="M249.95,499.08c137.68,0,249.95-111.45,249.95-249.95C499.08,111.45,387.63,0,249.95,0S0,111.45,0,249.95s111.45,249.13,249.95,249.13"/>
    <path class="cls-2" d="M233.67,380.74l22.36-21.64c.72-.72,1.44-2.16.72-3.61l-4.33-25.25c0-1.44-2.16-2.89-3.61-2.89h-.72l-4.33.72-2.89-10.82c0-1.44-1.44-2.89-2.89-2.89l-12.98-1.44-3.61-44c0-1.44-1.44-2.89-2.89-3.61l-10.82-1.44-4.33-15.87c0-1.44-1.44-2.16-2.89-2.89l-25.25-6.49-11.54-6.49-.72-16.59c0-1.44-.72-2.16-2.16-2.89-.72,0-1.44-.72-1.44-.72-.72,0-1.44,0-1.44.72l-22.36,13.71-12.98,1.44-.72-10.1c0-1.44-.72-2.16-1.44-2.89-.72,0-1.44-.72-2.16-.72h-1.44l-10.1,5.05-11.54-18.03,7.21-18.03,20.92-5.05c1.44-.72,2.89-2.16,2.89-3.61l-1.44-46.16,15.87-2.89,7.93,9.38c.72.72,1.44,1.44,2.89,1.44.72,0,1.44,0,1.44-.72l21.64-10.82c.72-.72,1.44-1.44,2.16-2.16v-2.89l-7.21-13.71,28.85-7.21,5.05,7.21,5.05,20.2c.72,1.44,2.16,2.89,3.61,2.89h.72l51.93-7.93c1.44,0,2.16-.72,2.89-2.16l5.77-10.82,10.1,14.43v3.61l-19.48,20.92c-1.44,1.44-1.44,3.61,0,5.05.72.72,1.44,1.44,2.89,1.44.72,0,1.44,0,2.16-.72l13.71-10.82h9.38l-5.77,13.71c-.72,1.44,0,3.61,1.44,4.33.72,0,1.44.72,2.16.72s2.16-.72,2.89-1.44l11.54-13.71,8.66,1.44,15.87,13.71c.72.72,1.44.72,2.16.72l35.34,3.61,22.36,18.03c.72,0,.72.72,1.44.72l13.71,2.89.72,23.8-32.46,33.9c-.72.72-.72,1.44-.72,2.16l-6.49,38.95-14.43,29.57-54.82,21.64c-1.44.72-2.16,1.44-2.16,2.89l-.72,17.31-33.9,45.44-25.25-21.64Z"/>
  </g>
</svg>