<?xml version="1.0" encoding="UTF-8"?>
<svg id="Layer_2" data-name="Layer 2" xmlns="http://www.w3.org/2000/svg" viewBox="0 0 504.9 504.08">
  <defs>
    <style>
      .cls-1 {
        fill: #fff;
      }

      .cls-2 {
        fill: #af1c27;
        stroke: #af1c27;
        stroke-miterlimit: 10;
        stroke-width: 5px;
      }
    </style>
  </defs>
  <g id="_30_12_2016" data-name="30_12_2016">
    <path class="cls-2" d="M252.45,501.58c137.68,0,249.95-111.45,249.95-249.95C501.58,113.95,390.13,2.5,252.45,2.5S2.5,113.95,2.5,252.45s111.45,249.13,249.95,249.13"/>
    <g id="Layer_14" data-name="Layer 14">
      <g>
        <path class="cls-1" d="M252.4,99.88c-29.71,0-58.78,8.64-83.66,24.87-3.53,2.31-4.52,7.05-2.21,10.58,2.3,3.55,7.04,4.55,10.58,2.24,22.4-14.6,48.56-22.37,75.29-22.37,76.21,0,137.84,61.63,137.84,137.84s-61.63,137.84-137.84,137.84-137.84-61.63-137.84-137.84c0-26.73,7.77-52.9,22.37-75.29,2.31-3.55,1.31-8.28-2.24-10.58-3.53-2.31-8.27-1.32-10.58,2.21-16.22,24.88-24.87,53.96-24.87,83.66,0,84.5,68.66,153.16,153.16,153.16s153.16-68.66,153.16-153.16-68.66-153.16-153.16-153.16h0Z"/>
        <path class="cls-1" d="M252.4,145.83c-59.11,0-107.21,48.1-107.21,107.21s48.1,107.21,107.21,107.21,107.21-48.1,107.21-107.21-48.1-107.21-107.21-107.21ZM252.4,191.78c2.02,0,3.98.82,5.41,2.25l22.97,22.97c2.99,2.99,2.99,7.83,0,10.83-2.99,2.99-7.84,2.99-10.83,0l-9.91-9.91v88.72c0,2.04-.8,3.98-2.24,5.41-1.44,1.44-3.39,2.25-5.41,2.25-4.24,0-7.65-3.43-7.65-7.67v-88.72l-9.91,9.91c-2.99,2.99-7.84,2.99-10.83,0-2.99-3-2.99-7.84,0-10.83l22.97-22.97c1.44-1.44,3.39-2.25,5.41-2.25h0Z"/>
      </g>
    </g>
  </g>
</svg>