<?xml version="1.0" encoding="UTF-8"?>
<svg id="Layer_2" xmlns="http://www.w3.org/2000/svg" version="1.1" viewBox="0 0 499.9 499.1">
  <!-- Generator: Adobe Illustrator 29.0.0, SVG Export Plug-In . SVG Version: 2.1.0 Build 186)  -->
  <defs>
    <style>
      .st0 {
        fill: #fff;
      }

      .st1 {
        display: none;
      }

      .st1, .st2 {
        fill: #af1c27;
      }

      .st2 {
        fill-rule: evenodd;
      }
    </style>
  </defs>
  <g id="_23_10_2018">
    <path class="st0" d="M249.9,499.1c138.5,0,249.9-110.6,249.9-249.1C499.9,111.4,387.6,0,249.9,0,112.3,0,.8,111.4,0,249.1c0,138.5,112.3,249.9,249.9,249.9"/>
    <g>
      <path class="st1" d="M367.3,333.1h0c10.4-3.1,17.5-12.7,17.5-23.5v-73.8s-106.4,32.7-106.4,32.7c-10.6,3.3-21.8,3.3-32.4,0l-106.4-32.7v73.8c0,10.9,7.1,20.4,17.5,23.5l94.5,28.3c6.9,2.1,14.2,2.1,21.1,0l94.5-28.3h0Z"/>
      <path class="st1" d="M84,194.5h0c-11.5,11.5-18,27.1-17.9,43.3v32.1c-7.6,4.3-12.2,12.4-12.3,21.1,0,13.5,24.5,36.8,24.5,36.8,0,0,24.5-23.2,24.5-36.8,0-8.7-4.7-16.8-12.3-21.1v-32.1c0-9.7,3.9-19.1,10.8-26,2.4-2.4,5.3-4.3,8.5-5.5,1.5,1.2,3.3,2,5.2,2.6h0s136.4,42,136.4,42c7.1,2.2,14.6,2.2,21.7,0h0s136.4-42,136.4-42c7-2.2,11.9-8.5,12.1-15.9.3-7.3-4.2-14-11-16.6l-135.1-52c-8.5-3.3-17.9-3.3-26.4,0l-135.1,52c-2.6,1.1-5,2.8-6.8,5-8.7,2.1-16.7,6.6-23.1,13h0Z"/>
      <path class="st2" d="M362.8,248.8v67.6c.1,5.1-2.4,9.9-6.6,12.8-22.3,15.7-60.7,26-104.3,26-43.6,0-82-10.5-104.3-26-4.2-2.9-6.7-7.7-6.6-12.8v-67.5s100.3,38.9,100.3,38.9c6.8,2.7,14.4,2.7,21.2,0l100.3-39h0ZM392.6,296.4c-4.9,1.7-8.1,6.3-8,11.4v41.7c0,4.2,3.2,7.6,7.4,7.8h8.3c4.2-.1,7.5-3.6,7.4-7.8v-41.7c0-5.2-3.2-9.8-8.1-11.4v-69.5s16.3-6.3,16.3-6.3c3-1.2,4.9-4.1,4.9-7.3s-1.9-6.1-4.9-7.3l-156-60.6c-5.2-2.1-11.1-2.1-16.3,0h0s-156,60.5-156,60.5c-3,1.2-4.9,4.1-4.9,7.3s2,6.1,4.9,7.3l156,60.5c5.2,2.1,11.1,2.1,16.3,0l132.5-51.4v66.8s.2,0,.2,0Z"/>
    </g>
  </g>
</svg>