<?xml version="1.0" encoding="UTF-8"?>
<svg id="Layer_2" data-name="Layer 2" xmlns="http://www.w3.org/2000/svg" viewBox="0 0 504.9 504.08">
  <defs>
    <style>
      .cls-1 {
        fill: #fff;
      }

      .cls-2 {
        fill: #af1c27;
        stroke: #af1c27;
        stroke-miterlimit: 10;
        stroke-width: 5px;
      }
    </style>
  </defs>
  <g id="_29_04_2019" data-name="29_04_2019">
    <path class="cls-2" d="M252.45,501.58c137.68,0,249.95-111.45,249.95-249.95C501.58,113.95,390.13,2.5,252.45,2.5S2.5,113.95,2.5,252.45s111.45,249.13,249.95,249.13"/>
    <g id="Layer_14_copy" data-name="Layer 14 copy">
      <g>
        <path class="cls-1" d="M405.77,154.45h-16.43v-10.96c0-3.29-2.19-5.48-5.48-5.48h-102.43c-12.05,0-23.01,6.57-29.03,15.88-6.03-9.31-16.98-15.88-29.03-15.88h-102.43c-3.29,0-5.48,2.19-5.48,5.48v10.96h-16.43c-3.29,0-5.48,2.19-5.48,5.48v202.67c0,3.29,2.19,5.48,5.48,5.48h306.74c3.29,0,5.48-2.19,5.48-5.48v-202.67c0-3.29-2.19-5.48-5.48-5.48h0ZM281.43,148.97h96.95v186.24h-98.05c-8.76,0-16.43,3.29-22.46,8.22v-170.9c0-13.15,10.41-23.55,23.55-23.55h0ZM126.42,148.97h96.95c13.15,0,23.55,10.41,23.55,23.55v171.45c-6.03-5.48-14.24-8.22-22.46-8.22h-98.05v-186.78Z"/>
        <path class="cls-1" d="M142.85,170.88h43.82c3.29,0,5.48-2.19,5.48-5.48s-2.19-5.48-5.48-5.48h-43.82c-3.29,0-5.48,2.19-5.48,5.48s2.19,5.48,5.48,5.48Z"/>
        <path class="cls-1" d="M142.85,198.27h87.64c3.29,0,5.48-2.19,5.48-5.48s-2.19-5.48-5.48-5.48h-87.64c-3.29,0-5.48,2.19-5.48,5.48s2.19,5.48,5.48,5.48Z"/>
        <path class="cls-1" d="M142.85,225.66h87.64c3.29,0,5.48-2.19,5.48-5.48s-2.19-5.48-5.48-5.48h-87.64c-3.29,0-5.48,2.19-5.48,5.48s2.19,5.48,5.48,5.48Z"/>
        <path class="cls-1" d="M142.85,253.04h65.73c3.29,0,5.48-2.19,5.48-5.48s-2.19-5.48-5.48-5.48h-65.73c-3.29,0-5.48,2.19-5.48,5.48s2.19,5.48,5.48,5.48Z"/>
        <path class="cls-1" d="M142.85,324.25h87.64c3.29,0,5.48-2.19,5.48-5.48v-49.3c0-3.29-2.19-5.48-5.48-5.48h-87.64c-3.29,0-5.48,2.19-5.48,5.48v49.3c0,3.29,2.19,5.48,5.48,5.48Z"/>
        <path class="cls-1" d="M274.31,324.25h87.64c3.29,0,5.48-2.19,5.48-5.48v-49.3c0-3.29-2.19-5.48-5.48-5.48h-87.64c-3.29,0-5.48,2.19-5.48,5.48v49.3c0,3.29,2.19,5.48,5.48,5.48Z"/>
        <path class="cls-1" d="M329.09,253.04h32.87c3.29,0,5.48-2.19,5.48-5.48v-82.16c0-3.29-2.19-5.48-5.48-5.48h-32.87c-3.29,0-5.48,2.19-5.48,5.48v82.16c0,3.29,2.19,5.48,5.48,5.48Z"/>
        <path class="cls-1" d="M274.31,170.88h32.87c3.29,0,5.48-2.19,5.48-5.48s-2.19-5.48-5.48-5.48h-32.87c-3.29,0-5.48,2.19-5.48,5.48s2.19,5.48,5.48,5.48Z"/>
        <path class="cls-1" d="M274.31,198.27h32.87c3.29,0,5.48-2.19,5.48-5.48s-2.19-5.48-5.48-5.48h-32.87c-3.29,0-5.48,2.19-5.48,5.48s2.19,5.48,5.48,5.48Z"/>
        <path class="cls-1" d="M274.31,225.66h32.87c3.29,0,5.48-2.19,5.48-5.48s-2.19-5.48-5.48-5.48h-32.87c-3.29,0-5.48,2.19-5.48,5.48s2.19,5.48,5.48,5.48Z"/>
        <path class="cls-1" d="M274.31,253.04h32.87c3.29,0,5.48-2.19,5.48-5.48s-2.19-5.48-5.48-5.48h-32.87c-3.29,0-5.48,2.19-5.48,5.48s2.19,5.48,5.48,5.48Z"/>
      </g>
    </g>
  </g>
</svg>