<?xml version="1.0" encoding="UTF-8"?>
<svg id="Layer_2" data-name="Layer 2" xmlns="http://www.w3.org/2000/svg" viewBox="0 0 499.9 499.08">
  <defs>
    <style>
      .cls-1, .cls-2 {
        fill: #fff;
      }

      .cls-2, .cls-3 {
        fill-rule: evenodd;
      }

      .cls-4, .cls-3 {
        fill: #af1c27;
      }
    </style>
  </defs>
  <g id="_12_12_2022" data-name="12_12_2022">
    <path class="cls-1" d="M249.95,499.08c137.68,0,249.95-111.45,249.95-249.95C499.08,111.45,387.63,0,249.95,0S0,111.45,0,249.95s111.45,249.13,249.95,249.13"/>
    <g>
      <path class="cls-3" d="M266.28,147.5h24.76c0-6.84,5.54-12.38,12.38-12.38h74.28c6.84,0,12.38,5.54,12.38,12.38v24.76c0,6.84-5.54,12.38-12.38,12.38h-74.28c-6.84,0-12.38-5.54-12.38-12.38h-24.76v37.14h24.76c6.84,0,12.38,5.54,12.38,12.38v24.76h24.76l37.14-24.76h24.76v123.8h-24.76l-37.14-24.76h-24.76v24.76c0,6.84-5.54,12.38-12.38,12.38h-160.94c-6.84,0-12.38-5.54-12.38-12.38v-136.18c0-20.51,16.63-37.14,37.14-37.14h24.76c20.51,0,37.14,16.63,37.14,37.14h24.76v-37.14c0-13.67,11.09-24.76,24.76-24.76Z"/>
      <path class="cls-2" d="M154.86,197.02c-6.84,0-12.38,5.54-12.38,12.38v12.38h49.52v-12.38c0-6.84-5.54-12.38-12.38-12.38h-24.76Z"/>
      <circle class="cls-4" cx="260.09" cy="252.73" r="18.57"/>
    </g>
  </g>
</svg>