<?xml version="1.0" encoding="UTF-8"?>
<svg id="Layer_2" data-name="Layer 2" xmlns="http://www.w3.org/2000/svg" viewBox="0 0 499.9 499.08">
  <defs>
    <style>
      .cls-1 {
        fill: #fff;
      }

      .cls-2 {
        fill: #af1c27;
      }
    </style>
  </defs>
  <g id="_29_04_2022" data-name="29_04_2022">
    <path class="cls-1" d="M249.95,499.08c137.68,0,249.95-111.45,249.95-249.95C499.08,111.45,387.63,0,249.95,0S0,111.45,0,249.95s111.45,249.13,249.95,249.13"/>
    <path class="cls-2" d="M351.62,148.84h-79.38l30.42-30.47c3.65-3.6,3.65-9.43,0-13.03-3.6-3.65-9.43-3.65-13.03,0l-39.71,39.67-39.72-39.67c-3.6-3.65-9.43-3.65-13.03,0-3.65,3.6-3.65,9.43,0,13.03l30.42,30.47h-79.39c-25.47,0-46.23,20.76-46.23,46.23v115.58c0,25.47,20.76,46.23,46.23,46.23h18.13l-12.72,28.62c-2.09,4.66.05,10.13,4.72,12.2,1.2.56,2.49.78,3.74.78,3.57,0,6.94-2.04,8.46-5.5l16.04-36.1h126.68l16.04,36.1c1.53,3.46,4.9,5.5,8.46,5.5,1.25,0,2.54-.23,3.74-.78,4.66-2.09,6.8-7.53,4.72-12.2l-12.72-28.62h18.13c25.47,0,46.23-20.76,46.23-46.23v-115.58c0-25.47-20.76-46.23-46.23-46.23h0Z"/>
    <path class="cls-2" d="M273.03,319.9h-46.23c-5.08,0-9.24-4.16-9.24-9.24s4.16-9.24,9.24-9.24h46.23c5.08,0,9.24,4.16,9.24,9.24s-4.16,9.24-9.24,9.24Z"/>
    <path class="cls-1" d="M287.08,248.09l-55.99-32.33c-6.56-3.79-14.76.95-14.76,8.52v64.65c0,7.58,8.2,12.31,14.76,8.52l55.99-32.33c6.56-3.79,6.56-13.26,0-17.05Z"/>
  </g>
</svg>