<?xml version="1.0" encoding="UTF-8"?>
<svg id="Layer_2" data-name="Layer 2" xmlns="http://www.w3.org/2000/svg" viewBox="0 0 504.9 504.08">
  <defs>
    <style>
      .cls-1 {
        fill: #fff;
        fill-rule: evenodd;
      }

      .cls-2 {
        fill: #af1c27;
        stroke: #af1c27;
        stroke-miterlimit: 10;
        stroke-width: 5px;
      }
    </style>
  </defs>
  <g id="_14_10_2024" data-name="14_10_2024">
    <path class="cls-2" d="M252.45,501.58c137.68,0,249.95-111.45,249.95-249.95C501.58,113.95,390.13,2.5,252.45,2.5S2.5,113.95,2.5,252.45s111.45,249.13,249.95,249.13"/>
    <g id="Layer_14_copy_2" data-name="Layer 14 copy 2">
      <path class="cls-1" d="M292.87,178.72c-10.35-10.35-24.67-16.77-40.47-16.77s-30.12,6.4-40.47,16.77c-10.35,10.35-16.77,24.67-16.77,40.47s6.4,30.12,16.77,40.47c10.35,10.36,24.67,16.77,40.47,16.77s30.12-6.4,40.47-16.77c10.35-10.35,16.77-24.67,16.77-40.47s-6.4-30.12-16.77-40.47ZM252.4,150.17c19.07,0,36.32,7.73,48.82,20.22,12.49,12.49,20.22,29.75,20.22,48.82s-7.72,36.32-20.22,48.82c-12.49,12.49-29.75,20.22-48.82,20.22s-36.32-7.73-48.82-20.22c-12.49-12.49-20.22-29.75-20.22-48.82s7.73-36.32,20.22-48.82c12.49-12.49,29.75-20.22,48.82-20.22ZM187.88,313.07l-21.57,60.47,33.11-9.6c2.59-.75,5.29.37,6.64,2.56l19.12,28.15,19.95-57.25c-3.45-1.29-6.6-3.32-9.74-5.33-3-1.93-5.97-3.85-8.49-4.44-2.57-.6-6.13-.16-9.67.28-5.89.74-11.74,1.46-17.37-1.3-5.64-2.77-8.63-7.88-11.62-12.97l-.33-.55h-.01ZM259.69,337.4l19.95,57.25,19.12-28.15c1.35-2.19,4.04-3.31,6.64-2.56l33.11,9.6-21.57-60.47-.33.55c-2.99,5.09-5.97,10.2-11.62,12.97-5.63,2.77-11.48,2.03-17.37,1.3-3.55-.44-7.12-.89-9.67-.28-2.52.59-5.49,2.51-8.49,4.44-3.12,2.02-6.27,4.04-9.74,5.33h-.01ZM314.86,296.76l-.18.15c-3.6,2.9-5.91,6.83-8.22,10.77-2.09,3.58-4.19,7.17-6.64,8.36-2.42,1.19-6.59.68-10.78.15-4.56-.57-9.15-1.14-13.78-.05-4.5,1.06-8.32,3.52-12.18,6.01-3.72,2.4-7.5,4.83-10.67,4.83s-6.93-2.43-10.67-4.83c-3.86-2.48-7.68-4.95-12.18-6.01-4.63-1.08-9.22-.52-13.78.05-4.19.52-8.36,1.04-10.78-.15-2.45-1.19-4.55-4.78-6.64-8.36-2.31-3.95-4.61-7.88-8.22-10.77l-.18-.15c-.36-.33-.76-.63-1.2-.87-3.33-2.24-7.15-3.45-10.98-4.68-3.9-1.24-7.79-2.48-9.48-4.59-1.67-2.09-2.05-6.17-2.43-10.26-.42-4.56-.85-9.13-2.91-13.35-2.05-4.18-5.33-7.29-8.63-10.41-3.09-2.91-6.18-5.85-6.83-8.65-.66-2.82.77-6.87,2.22-10.98,1.56-4.44,3.15-8.92,3.15-13.74s-1.59-9.31-3.15-13.74c-1.45-4.11-2.89-8.16-2.22-10.98.66-2.8,3.76-5.73,6.83-8.65,3.29-3.12,6.58-6.23,8.63-10.42,2.07-4.22,2.5-8.79,2.91-13.35.38-4.09.76-8.17,2.43-10.26,1.68-2.1,5.58-3.34,9.48-4.6,4.38-1.4,8.74-2.79,12.37-5.7,3.6-2.9,5.91-6.83,8.22-10.77,2.09-3.58,4.19-7.17,6.64-8.36,2.42-1.19,6.59-.68,10.78-.15,4.56.57,9.15,1.14,13.78.05,4.5-1.06,8.32-3.52,12.18-6.01,3.72-2.4,7.5-4.83,10.67-4.83s6.93,2.43,10.67,4.83c3.86,2.48,7.68,4.95,12.18,6.01,4.63,1.08,9.22.52,13.78-.05,4.19-.52,8.36-1.04,10.78.15,2.45,1.19,4.55,4.78,6.64,8.36,2.31,3.95,4.61,7.88,8.22,10.77,3.63,2.91,7.99,4.3,12.37,5.7,3.9,1.24,7.79,2.48,9.48,4.6,1.67,2.09,2.05,6.17,2.43,10.26.42,4.56.85,9.13,2.91,13.35,2.05,4.18,5.33,7.29,8.63,10.42,3.09,2.91,6.18,5.85,6.83,8.65.66,2.82-.77,6.87-2.22,10.98-1.56,4.44-3.15,8.92-3.15,13.74s1.59,9.31,3.15,13.74c1.45,4.11,2.89,8.16,2.22,10.98-.66,2.8-3.76,5.74-6.83,8.65-3.29,3.12-6.58,6.23-8.63,10.41-2.07,4.22-2.5,8.79-2.91,13.35-.38,4.09-.76,8.17-2.43,10.26-1.68,2.1-5.58,3.34-9.48,4.59-3.82,1.23-7.66,2.45-10.98,4.68-.44.25-.85.54-1.2.87ZM254,187.33l9.11,19.4c.27.57.76.92,1.38,1.01l21.27,2.67c.7.09,1.24.54,1.46,1.2.22.66.04,1.35-.47,1.84l-15.64,14.67c-.45.43-.64,1.01-.53,1.62l4.03,21.05c.14.69-.12,1.35-.7,1.77-.57.42-1.28.45-1.89.12l-18.77-10.34c-.55-.31-1.16-.31-1.71,0l-18.77,10.34c-.61.34-1.33.3-1.89-.12-.57-.42-.84-1.08-.7-1.77l4.03-21.05c.11-.61-.07-1.19-.53-1.62l-15.64-14.67c-.52-.48-.69-1.17-.47-1.84.22-.66.76-1.12,1.46-1.2l21.27-2.67c.61-.07,1.12-.44,1.38-1.01l9.11-19.4c.3-.64.9-1.02,1.6-1.02s1.3.38,1.6,1.02h.01Z"/>
    </g>
  </g>
</svg>