<?xml version="1.0" encoding="UTF-8"?>
<svg id="Layer_2" data-name="Layer 2" xmlns="http://www.w3.org/2000/svg" viewBox="0 0 504.9 504.08">
  <defs>
    <style>
      .cls-1 {
        fill: #fff;
        fill-rule: evenodd;
      }

      .cls-2 {
        fill: #af1c27;
        stroke: #af1c27;
        stroke-miterlimit: 10;
        stroke-width: 5px;
      }
    </style>
  </defs>
  <g id="_30_10_2024" data-name="30_10_2024">
    <path class="cls-2" d="M252.45,501.58c137.68,0,249.95-111.45,249.95-249.95C501.58,113.95,390.13,2.5,252.45,2.5S2.5,113.95,2.5,252.45s111.45,249.13,249.95,249.13"/>
    <path class="cls-1" d="M315.73,329.35c-5.16,13.75-11.7,25.78-19.29,35.51-11.1,14.26-24.41,23.47-38.95,25.23v-60.75h58.24ZM247.31,390.1c-14.54-1.76-27.85-10.99-38.95-25.23-7.59-9.72-14.12-21.76-19.29-35.51h58.24v60.75ZM366.62,329.35h-40.09c-5.75,16.3-13.25,30.5-22.05,41.77-4,5.15-8.28,9.69-12.79,13.58l.12-.04c4.83-1.44,9.58-3.16,14.22-5.13,7.71-3.28,15.13-7.27,22.1-11.91,9.35-6.19,17.93-13.52,25.5-21.78,3.11-3.4,6.05-6.94,8.81-10.63l4.15-5.85h.02ZM178.28,329.35h-40.09c17.59,26.25,43.98,46.11,74.92,55.34-4.5-3.89-8.79-8.43-12.79-13.58-8.79-11.27-16.3-25.47-22.05-41.77h.01ZM389.67,258.13h-50.84c-.43,21.9-3.65,42.61-9.04,61.05h43c10.05-18.23,16.08-38.97,16.88-61.05ZM165.96,258.13h-50.84c.81,22.06,6.83,42.81,16.88,61.05h43c-5.4-18.44-8.62-39.13-9.04-61.05ZM185.59,319.18c-5.64-18.27-9.01-39.01-9.46-61.05h71.17v61.05h-61.71ZM328.66,258.13c-.45,22.04-3.82,42.78-9.46,61.05h-61.71v-61.05h71.17ZM372.79,186.9h-43c5.4,18.44,8.62,39.13,9.04,61.05h50.84c-.81-22.06-6.83-42.81-16.88-61.05ZM175.01,186.9h-43c-10.05,18.23-16.08,38.97-16.88,61.05h50.84c.43-21.9,3.65-42.61,9.04-61.05ZM176.13,247.95c.45-22.04,3.82-42.78,9.46-61.05h61.71v61.05h-71.17ZM319.2,186.9c5.64,18.27,9.01,39.01,9.46,61.05h-71.17v-61.05h61.71ZM257.49,115.98c14.54,1.76,27.85,10.99,38.95,25.23,7.59,9.72,14.12,21.76,19.29,35.51h-58.24v-60.75ZM247.3,115.98v60.75h-58.24c5.16-13.75,11.7-25.78,19.29-35.51,11.1-14.26,24.41-23.47,38.95-25.23h0ZM212.98,121.43c-4.83,1.44-9.58,3.16-14.22,5.13-7.71,3.28-15.13,7.27-22.1,11.91-9.35,6.19-17.93,13.52-25.5,21.78-3.11,3.4-6.05,6.94-8.81,10.63l-4.15,5.85h40.09c5.75-16.3,13.25-30.5,22.05-41.77,4-5.15,8.28-9.69,12.79-13.58l-.12.04h-.02ZM291.68,121.39c4.5,3.89,8.79,8.43,12.79,13.58,8.79,11.27,16.3,25.47,22.05,41.77h40.09c-17.59-26.25-43.98-46.11-74.92-55.34h-.01Z"/>
  </g>
</svg>