<?xml version="1.0" encoding="UTF-8"?>
<svg id="Layer_2" data-name="Layer 2" xmlns="http://www.w3.org/2000/svg" viewBox="0 0 499.9 499.08">
  <defs>
    <style>
      .cls-1 {
        fill: #fff;
      }

      .cls-2 {
        fill: #af1c27;
      }
    </style>
  </defs>
  <g id="_07_08_2025" data-name="07_08_2025">
    <path class="cls-1" d="M249.95,499.08c137.68,0,249.95-111.45,249.95-249.95C499.08,111.45,387.63,0,249.95,0S0,111.45,0,249.95s111.45,249.13,249.95,249.13"/>
    <g>
      <path class="cls-2" d="M313.62,135.12c0-3.88-1.59-7.36-4.12-9.95-2.53-2.47-6.06-4.06-9.89-4.06-7.77,0-14.07,6.24-14.07,14.01v4.89h28.08v-4.89Z"/>
      <path class="cls-2" d="M171.82,200.51c16.09,0,29.14-13.05,29.14-29.14s-13.05-29.14-29.14-29.14-29.14,13.05-29.14,29.14,13.05,29.14,29.14,29.14Z"/>
      <path class="cls-2" d="M269.06,183.62c0-2.41-.59-4.83-1.82-7-3.94-7.12-12.89-9.59-19.95-5.65l-52.5,29.55h-3.59c-5.53,3.71-12.18,5.89-19.37,5.89s-13.83-2.18-19.36-5.89h-14.54c-13.01,0-23.6,10.6-23.6,23.6v62.16c0,6.48,5.24,11.71,11.71,11.71,3.24,0,6.18-1.29,8.3-3.41s3.41-5.06,3.41-8.3v-31.26h5.89v109.95c0,7.77,6.36,15.01,14.07,15.01,4.59,0,8.59-2.12,11.18-5.47v-82.64h5.89v82.64c2.59,3.3,6.53,5.42,11.07,5.47,7.77.06,14.13-7,14.13-14.77v-134.73l61.57-33.96c4.83-2.71,7.53-7.77,7.53-12.89Z"/>
      <path class="cls-2" d="M369.12,145.89h-139.03c-10.18,0-18.42,8.24-18.42,18.42v19.95l32.67-18.42c3.12-1.77,6.59-2.65,10.12-2.65,7.42,0,14.3,4.06,17.89,10.54,1.71,2.94,2.59,6.42,2.59,9.89,0,7.48-4.06,14.36-10.54,18.01l-52.74,29.08v49.85c0,10.18,8.24,18.36,18.42,18.36h55.72l-21.37,54.88,5.48,2.14,22.2-57.02h4.52v55.95h5.89v-55.95h4.52l22.2,57.02,5.48-2.14-21.37-54.88h55.75c10.18,0,18.36-8.18,18.36-18.36v-116.25c0-10.18-8.18-18.42-18.36-18.42ZM362.87,275.41h-108.16c-1.63,0-2.94-1.32-2.94-2.94s1.32-2.94,2.94-2.94h108.16c1.63,0,2.94,1.32,2.94,2.94s-1.32,2.94-2.94,2.94ZM362.87,250.39h-108.16c-1.63,0-2.94-1.32-2.94-2.94s1.32-2.94,2.94-2.94h108.16c1.63,0,2.94,1.32,2.94,2.94s-1.32,2.94-2.94,2.94ZM362.87,225.38h-108.16c-1.63,0-2.94-1.32-2.94-2.94s1.32-2.94,2.94-2.94h108.16c1.63,0,2.94,1.32,2.94,2.94s-1.32,2.94-2.94,2.94ZM362.87,200.36h-65.88c-1.63,0-2.94-1.32-2.94-2.94s1.32-2.94,2.94-2.94h65.88c1.63,0,2.94,1.32,2.94,2.94s-1.32,2.94-2.94,2.94ZM362.87,175.35h-65.88c-1.63,0-2.94-1.32-2.94-2.94s1.32-2.94,2.94-2.94h65.88c1.63,0,2.94,1.32,2.94,2.94s-1.32,2.94-2.94,2.94Z"/>
    </g>
  </g>
</svg>