<?xml version="1.0" encoding="UTF-8"?>
<svg id="Layer_2" data-name="Layer 2" xmlns="http://www.w3.org/2000/svg" viewBox="0 0 499.9 499.08">
  <defs>
    <style>
      .cls-1 {
        fill: #fff;
      }

      .cls-2 {
        fill: #af1c27;
        fill-rule: evenodd;
      }
    </style>
  </defs>
  <g id="_19_05_2025" data-name="19_05_2025">
    <path class="cls-1" d="M249.95,499.08c137.68,0,249.95-111.45,249.95-249.95C499.08,111.45,387.63,0,249.95,0S0,111.45,0,249.95s111.45,249.13,249.95,249.13"/>
    <path class="cls-2" d="M198.3,128.2c12.38,0,22.41,10.03,22.41,22.41s-10.03,22.41-22.41,22.41-22.41-10.03-22.41-22.41,10.03-22.41,22.41-22.41ZM214.84,242.52l2.37-32.15,11.26,13.48c.11.13.23.25.35.37,2.65,3.37,7.25,5.62,11.53,4.08l33.35-12.07c6.07-1.42,9.89-7.55,8.46-13.62-1.42-6.08-7.55-9.89-13.62-8.47l-26.83,10.55-16.67-22.86c-6.02-8.25-26.34-7.21-32.31-7-27.27,3.13-30.04,5.25-49.35,17.19-3.87,2.39-6.77,5.8-6.92,10.07-.02.17-.05.34-.07.51l-3.77,34.02c-.68,6.2,3.83,11.84,10.02,12.52,6.2.68,11.84-3.83,12.52-10.02l3.19-28.81,11.98-7.26-2.96,40.2c-2.1,7.3,2.16,14.99,9.46,17.09l49.1,14.1,3.05,24.04c.86,6.8,6.57,11.83,13.43,11.83,4.27,0,7.68-1.31,10.55-4.55,2.67-3,3.79-6.62,3.31-10.6l-3.85-31.83c-.65-3.79-1.66-7.05-4.22-9.54-1.91-1.86-4.36-2.88-7-3.69l-26.34-7.57ZM180.79,325.15c-1.77,5.77-6.9,9.54-12.93,9.54h-.66c-9.15,0-15.62-8.78-12.93-17.52l16.31-52.77c1.39.81,2.91,1.46,4.52,1.93l21.86,6.28-16.17,52.54ZM368.16,130v.9c-6.8,1.96-11.54,3.77-18.87,3.48l-11.7-.46c-5.02-.2-9.36.48-14.09,2.18l-9.68,3.49v36.36l11.54-3.95c4.61-1.58,8.81-2.18,13.67-1.97l11.42.49c7.28.31,11.13-1.17,17.71-3.2v124.04h-77.8c-1.72,0-3.11,1.39-3.11,3.11v27.62h-77.81c-1.72,0-3.11,1.39-3.11,3.11v21.27h-77.8c-1.72,0-3.11,1.39-3.11,3.11v21.51c0,1.72,1.39,3.11,3.11,3.11s3.11-1.39,3.11-3.11v-18.39h77.8c1.72,0,3.11-1.39,3.11-3.11v-21.27h77.81c1.72,0,3.11-1.39,3.11-3.11v-27.62h77.8c1.72,0,3.11-1.39,3.11-3.11v-164.47c.01-1.72-1.38-3.11-3.1-3.11-1.72-.01-3.12,1.39-3.12,3.11h0Z"/>
  </g>
</svg>